<?xml version="1.0" encoding="UTF-8"?>
<svg version="1.1" xmlns="http://www.w3.org/2000/svg" width="704" height="704">
<path d="M0 0 C232.32 0 464.64 0 704 0 C704 232.32 704 464.64 704 704 C471.68 704 239.36 704 0 704 C0 471.68 0 239.36 0 0 Z " fill="#262727" transform="translate(0,0)"/>
<path d="M0 0 C2.87010965 1.60070052 5.13679318 3.70731061 7.48849487 5.96892548 C8.03094148 6.47988061 8.57338809 6.99083575 9.13227248 7.51727438 C10.9512686 9.23518117 12.75948246 10.96399714 14.5675354 12.69341278 C15.86826522 13.92786753 17.16933989 15.161959 18.47073364 16.39571381 C30.39816821 27.72854059 42.19426949 39.19949595 53.95676041 50.70315552 C61.85440861 58.42324523 69.78550953 66.10041501 77.81948853 73.67876434 C84.84077582 80.30186356 91.78388928 86.99658827 98.6465776 93.78402662 C102.27341859 97.36647134 105.92528231 100.90656389 109.67264557 104.36310577 C135.00108165 127.80281169 135.00108165 127.80281169 135.89182353 147.15195417 C136.02952637 156.20008824 135.25520484 165.16108491 133.99624634 174.11333466 C130.03564726 171.87160943 127.77157705 169.72126459 124.99624634 166.11333466 C124.00624634 165.45333466 123.01624634 164.79333466 121.99624634 164.11333466 C121.66624634 203.38333466 121.33624634 242.65333466 120.99624634 283.11333466 C227.91624634 283.11333466 334.83624634 283.11333466 444.99624634 283.11333466 C444.99624634 292.68333466 444.99624634 302.25333466 444.99624634 312.11333466 C435.42624634 312.11333466 425.85624634 312.11333466 415.99624634 312.11333466 C415.99624634 369.20333466 415.99624634 426.29333466 415.99624634 485.11333466 C402.12938429 483.85271083 402.12938429 483.85271083 395.99624634 478.11333466 C390.85792227 471.8392866 387.74218551 465.94716589 387.7557373 457.74155426 C387.75161331 455.81281715 387.75161331 455.81281715 387.74740601 453.84511566 C387.7544834 452.42760374 387.76175301 451.01009276 387.76919556 449.5925827 C387.76975993 448.09432737 387.7694426 446.59607148 387.76831055 445.09781647 C387.76773705 441.03621003 387.77949085 436.97472188 387.79345846 432.91314292 C387.80596633 428.66638779 387.80713637 424.4196299 387.80950928 420.17285919 C387.81572388 412.133575 387.83213443 404.09434524 387.85220826 396.055085 C387.87456787 386.90158375 387.88556085 377.74807989 387.89559913 368.59455812 C387.91650068 349.76744651 387.95317668 330.94040951 387.99624634 312.11333466 C378.42624634 312.11333466 368.85624634 312.11333466 358.99624634 312.11333466 C358.99624634 369.20333466 358.99624634 426.29333466 358.99624634 485.11333466 C350.13726915 485.11333466 343.45857751 483.51453801 337.00015259 477.14458466 C335.49831078 475.19705912 334.22245731 473.2430695 332.99624634 471.11333466 C332.37749634 470.14395966 331.75874634 469.17458466 331.12124634 468.17583466 C330.03245058 465.21189065 329.87546091 463.51479732 329.92593384 460.42192841 C329.93608521 459.61425018 329.94623657 458.80657196 329.95669556 457.97441864 C329.96974731 457.36026093 329.98279907 456.74610321 329.99624634 456.11333466 C328.56590813 456.12332741 328.56590813 456.12332741 327.10667419 456.13352203 C318.11670434 456.19435865 309.12677629 456.23931953 300.13664722 456.26877117 C295.51480843 456.28442163 290.89313592 456.30564859 286.27139282 456.33965302 C281.81046096 456.37226857 277.34968898 456.39019234 272.88864708 456.39796638 C271.18740002 456.40350595 269.48616162 456.41432341 267.78498268 456.43052483 C265.4005409 456.45232857 263.01675824 456.45530039 260.63223267 456.45391083 C259.57918694 456.47008957 259.57918694 456.47008957 258.50486755 456.48659515 C254.14768382 456.45915165 251.47700308 455.7439048 247.99624634 453.11333466 C243.0770262 447.6475345 242.84152361 443.35440152 242.81924438 436.23906708 C242.81267319 435.33143112 242.80610199 434.42379517 242.79933167 433.48865509 C242.77960491 430.48203703 242.76793797 427.47546889 242.75796509 424.46880341 C242.75388956 423.44198267 242.74981403 422.41516193 242.74561501 421.35722542 C242.7247578 415.9233101 242.71045406 410.48942002 242.70108032 405.05547333 C242.69001137 399.44311044 242.65560467 393.83114354 242.61590862 388.21892071 C242.58976622 383.90290336 242.58139063 379.58698075 242.57779884 375.27089119 C242.57292744 373.20204555 242.56129775 371.13320429 242.54276085 369.06443596 C242.51841833 366.1678996 242.5193255 363.27239312 242.52627563 360.37578583 C242.50706055 359.09675888 242.50706055 359.09675888 242.48745728 357.79189301 C242.54601147 351.08932729 244.57015424 347.62461782 249.26325989 342.766716 C252.78061937 340.63881063 255.73548116 340.5786016 259.72402954 340.65923309 C260.8662925 340.65835693 260.8662925 340.65835693 262.03163147 340.65746307 C264.53723461 340.66023968 267.04163346 340.69130996 269.54702759 340.72270966 C271.28865407 340.73017359 273.03028898 340.7358658 274.77192688 340.73986053 C279.34732405 340.75510493 283.9222102 340.79437623 288.49740601 340.83867645 C293.16947518 340.87965507 297.84162723 340.89787707 302.51382446 340.91802216 C311.67489196 340.96087198 320.83544663 341.03121184 329.99624634 341.11333466 C329.99624634 331.54333466 329.99624634 321.97333466 329.99624634 312.11333466 C291.71624634 312.11333466 253.43624634 312.11333466 213.99624634 312.11333466 C213.99624634 369.20333466 213.99624634 426.29333466 213.99624634 485.11333466 C205.14870307 485.11333466 199.13428116 482.13054547 192.18765259 476.69927216 C183.01179619 466.92312609 184.47145647 452.44881578 184.60562134 440.13286591 C184.61309361 438.10835075 184.61878187 436.0838283 184.62277222 434.05930328 C184.6379509 428.76395497 184.67716487 423.46905448 184.72158813 418.17388153 C184.76270938 412.75727646 184.78081905 407.34059813 184.80093384 401.92388153 C184.84366751 391.32013878 184.9139529 380.71684425 184.99624634 370.11333466 C175.75624634 370.11333466 166.51624634 370.11333466 156.99624634 370.11333466 C157.03105103 373.28056122 157.06585571 376.44778778 157.10171509 379.71099091 C157.12513853 382.79228057 157.14333926 385.87356017 157.16104126 388.95488739 C157.17608995 391.08969848 157.1965337 393.22447884 157.2225647 395.35918427 C157.2591202 398.4348638 157.27601223 401.51013309 157.28921509 404.58599091 C157.30469894 405.53418198 157.3201828 406.48237305 157.33613586 407.45929718 C157.33756389 413.13381085 156.73747615 417.10851665 153.99624634 422.11333466 C149.68518358 426.20884428 146.17469867 427.48300216 140.19546509 427.39458466 C136.4092847 426.91038397 132.95480164 425.53712761 129.99624634 423.11333466 C128.32858992 419.64187183 127.74938354 416.88128636 127.76919556 413.04766083 C127.76934662 412.06702164 127.76949768 411.08638245 127.76965332 410.07602692 C127.77997589 409.03001816 127.79029846 407.9840094 127.80093384 406.90630341 C127.80517868 405.28550621 127.80517868 405.28550621 127.80950928 403.63196564 C127.82068502 400.18814165 127.84578515 396.74457976 127.87124634 393.30083466 C127.88127949 390.96294779 127.89040476 388.62505684 127.89859009 386.28716278 C127.91891238 380.56237171 127.95806679 374.83814585 127.99624634 369.11333466 C118.42624634 369.11333466 108.85624634 369.11333466 98.99624634 369.11333466 C98.99624634 397.82333466 98.99624634 426.53333466 98.99624634 456.11333466 C108.56624634 456.11333466 118.13624634 456.11333466 127.99624634 456.11333466 C127.99624634 465.68333466 127.99624634 475.25333466 127.99624634 485.11333466 C121.14454591 485.25133981 114.29769397 485.37070205 107.44570923 485.4429245 C105.1167667 485.47303804 102.78793703 485.51393843 100.4593811 485.56597137 C97.10550046 485.63902195 93.75312304 485.67284654 90.39859009 485.69927216 C89.3629039 485.73023987 88.32721771 485.76120758 87.26014709 485.79311371 C81.19509685 485.795917 77.74244199 485.06089171 73.32194519 480.79586029 C70.53753424 477.26199377 69.74525692 474.46343628 69.72209167 469.97863007 C69.71211655 468.94133759 69.70214142 467.9040451 69.69186401 466.83531952 C69.69119934 465.7027774 69.69053467 464.57023529 69.68984985 463.40337372 C69.68152634 462.2061972 69.67320282 461.00902069 69.66462708 459.7755661 C69.64465772 456.49434721 69.63388563 453.2132755 69.62880063 449.93200397 C69.62515369 447.87957981 69.61891179 445.82717991 69.61179924 443.77476501 C69.5873088 436.60733726 69.57425439 429.43998179 69.57070923 422.27251434 C69.56707743 415.60363227 69.53720717 408.93521141 69.49530464 402.26647019 C69.46054347 396.53211344 69.44515976 390.79790905 69.44446319 385.06344771 C69.44367214 381.6425083 69.43501455 378.22203855 69.40646553 374.8012085 C69.37957458 370.98069026 69.38437189 367.16143866 69.3968811 363.34087372 C69.37462967 361.65420593 69.37462967 361.65420593 69.35192871 359.93346405 C69.41396972 353.2705346 70.21861308 348.06118522 74.99624634 343.11333466 C79.0318086 340.61588305 83.05040202 340.77282108 87.67202759 340.74224091 C88.51541183 340.73321243 89.35879608 340.72418396 90.22773743 340.7148819 C92.01048237 340.70039272 93.79328033 340.69149597 95.57608032 340.68779755 C98.2893247 340.67591968 101.00027982 340.62674 103.71304321 340.57622528 C105.4493603 340.56675801 107.18569128 340.55952443 108.92202759 340.55474091 C109.72642776 340.53520859 110.53082794 340.51567627 111.35960388 340.49555206 C117.15051224 340.54141726 120.81679253 342.05403816 124.99624634 346.11333466 C126.99624634 349.11333466 126.99624634 349.11333466 126.99624634 352.11333466 C127.65624634 352.11333466 128.31624634 352.11333466 128.99624634 352.11333466 C129.05812134 350.78302216 129.05812134 350.78302216 129.12124634 349.42583466 C130.04940604 345.9120872 131.13526306 344.3744582 133.97994995 342.1432724 C138.19511805 339.99013621 142.89670404 340.51279199 147.51968384 340.62505341 C148.6209964 340.63212814 149.72230896 340.63920288 150.85699463 340.646492 C154.36244629 340.67440239 157.86628029 340.73713859 161.37124634 340.80083466 C163.75273363 340.82592168 166.13424605 340.84873414 168.51577759 340.86919403 C174.34371976 340.91996008 180.16818006 341.01782738 185.99624634 341.11333466 C185.99624634 331.54333466 185.99624634 321.97333466 185.99624634 312.11333466 C138.14624634 312.11333466 90.29624634 312.11333466 40.99624634 312.11333466 C40.99624634 369.20333466 40.99624634 426.29333466 40.99624634 485.11333466 C30.97173232 484.11088325 25.52194378 483.52983094 19.24624634 475.98833466 C12.20103618 466.92532158 11.42051193 457.51440104 11.54214478 446.39214325 C11.54327523 444.93255901 11.54263553 443.47297251 11.54037476 442.01338959 C11.53923438 438.08001978 11.56263273 434.14714508 11.59067059 430.2138896 C11.61579817 426.09263893 11.61803514 421.97137497 11.62277222 417.85005951 C11.63516881 410.05877113 11.66794512 402.26770918 11.70817018 394.47652018 C11.75299159 385.60103577 11.77490091 376.72554013 11.79495192 367.84997058 C11.83668107 349.60427109 11.90999152 331.35888173 11.99624634 313.11333466 C2.75624634 313.11333466 -6.48375366 313.11333466 -16.00375366 313.11333466 C-16.00375366 369.87333466 -16.00375366 426.63333466 -16.00375366 485.11333466 C-27.00375366 484.11333466 -27.00375366 484.11333466 -31.00375366 481.11333466 C-31.64312866 480.98958466 -32.28250366 480.86583466 -32.94125366 480.73833466 C-35.00375366 480.11333466 -35.00375366 480.11333466 -40.00375366 475.11333466 C-46.00375366 461.11333466 -46.00375366 461.11333466 -46.00375366 428.11333466 C-74.38375366 428.11333466 -102.76375366 428.11333466 -132.00375366 428.11333466 C-132.00375366 389.83333466 -132.00375366 351.55333466 -132.00375366 312.11333466 C-136.29375366 312.11333466 -140.58375366 312.11333466 -145.00375366 312.11333466 C-145.00375366 302.87333466 -145.00375366 293.63333466 -145.00375366 284.11333466 C-140.71375366 284.11333466 -136.42375366 284.11333466 -132.00375366 284.11333466 C-132.00375366 247.48333466 -132.00375366 210.85333466 -132.00375366 173.11333466 C-138.88248585 178.22403736 -138.88248585 178.22403736 -141.00375366 183.11333466 C-143.12875366 183.86333466 -143.12875366 183.86333466 -145.00375366 184.11333466 C-145.20220168 178.26026288 -145.34699966 172.40916671 -145.44320679 166.5535202 C-145.48332566 164.56391526 -145.5378374 162.57454454 -145.60726929 160.58574677 C-145.70484407 157.71805268 -145.74979225 154.85348509 -145.78500366 151.98442841 C-145.82629395 151.10185867 -145.86758423 150.21928894 -145.91012573 149.30997467 C-145.91457503 143.12223123 -145.91457503 143.12223123 -143.63043594 140.59214115 C-143.01791851 140.11554019 -142.40540108 139.63893923 -141.77432251 139.14789581 C-137.95815632 135.98681866 -134.43301514 132.65040495 -130.94351196 129.13970184 C-130.38405632 128.5779131 -129.82460068 128.01612435 -129.24819183 127.43731171 C-127.41890319 125.59695927 -125.59269773 123.75357832 -123.76644897 121.91020966 C-122.44198458 120.57726598 -121.11725504 119.2445857 -119.7922821 117.91214752 C-116.95318154 115.05640481 -114.11547665 112.19928505 -111.27872467 109.34120941 C-106.79522187 104.8249782 -102.30566675 100.31479693 -97.81472778 95.80596161 C-97.05557831 95.04372567 -96.29642884 94.28148973 -95.51427484 93.49615574 C-93.96296519 91.93853936 -92.41164704 90.38093145 -90.86032057 88.82333183 C-80.41381758 78.33384561 -69.97193724 67.83982081 -59.54428101 57.33159637 C-52.49684966 50.22980805 -45.44066591 43.13684697 -38.37419391 36.05400276 C-34.63724637 32.30766174 -30.90506624 28.55682386 -27.18360138 24.79509735 C-23.69102085 21.26483172 -20.18713336 17.74620996 -16.67403221 14.23636818 C-15.38447671 12.94382916 -14.09923959 11.64696577 -12.81859016 10.34560204 C-11.07567473 8.57574466 -9.318197 6.82178798 -7.55606079 5.07109833 C-7.04789109 4.5476823 -6.5397214 4.02426628 -6.01615262 3.48498917 C-2.61171131 0.14772145 -2.61171131 0.14772145 0 0 Z " fill="#63C5CF" transform="translate(211.00375366210938,66.88666534423828)"/>
<path d="M0 0 C91.41 0 182.82 0 277 0 C277 9.24 277 18.48 277 28 C267.76 28 258.52 28 249 28 C249.04640625 32.28742188 249.0928125 36.57484375 249.140625 40.9921875 C249.16639281 44.43507423 249.18806833 47.87793331 249.20700073 51.32086182 C249.22802498 54.94197297 249.25606574 58.5627027 249.30175781 62.18359375 C249.34557814 65.67847537 249.36921218 69.17298976 249.37950897 72.66812515 C249.39037481 74.63441341 249.42154181 76.60055623 249.45318604 78.56661987 C249.45540003 87.51063294 248.14320612 95.0497536 242.75 102.375 C232.97012781 111.71033255 221.23360108 111 208 111 C208 129.15 208 147.3 208 166 C221.53 166 235.06 166 249 166 C249 175.24 249 184.48 249 194 C241.32048816 194.14714393 233.64612928 194.28730926 225.96643066 194.36225128 C222.38976252 194.39909799 218.8142705 194.44826049 215.23828125 194.52807617 C211.78871661 194.60458125 208.34028638 194.64608058 204.88993835 194.6641407 C202.94435148 194.68322011 200.99921628 194.7377966 199.05432129 194.79307556 C192.96451405 194.79575728 188.93697941 194.63905932 184.19335938 190.58227539 C180.074426 186.36197196 179.87646666 183.88466904 179.88647461 177.97998047 C179.88632858 177.25792419 179.88618256 176.53586792 179.8860321 175.79193115 C179.88672993 173.40031959 179.89451625 171.00878549 179.90234375 168.6171875 C179.90420839 166.96094811 179.90563208 165.30470816 179.90663147 163.64846802 C179.91045301 159.28532392 179.92028022 154.922213 179.93133545 150.55908203 C179.94155736 146.10840301 179.94613076 141.65771863 179.95117188 137.20703125 C179.9619028 128.47133892 179.97897488 119.73567359 180 111 C178.89068115 110.85933105 177.7813623 110.71866211 176.63842773 110.57373047 C173.00514339 110.00081104 171.62623956 109.64804528 169.0625 107.125 C166 102 166 102 166 83 C184.15 83 202.3 83 221 83 C221 64.85 221 46.7 221 28 C193.94 28 166.88 28 139 28 C139 82.78 139 137.56 139 194 C128.620769 192.9620769 122.93750904 191.91398133 116.421875 184.171875 C111.48563033 176.63189688 110.44559113 171.42152161 110.75 162.5 C110.76804687 161.48679687 110.78609375 160.47359375 110.8046875 159.4296875 C110.85143417 156.95211393 110.91693628 154.47657684 111 152 C110.08624603 152.00888245 109.17249207 152.01776489 108.23104858 152.0269165 C99.60930884 152.10714739 90.98769493 152.16800763 82.36566734 152.20724869 C77.93323178 152.22810139 73.50110533 152.25637633 69.06884766 152.30175781 C64.78944496 152.34529877 60.51033912 152.36915454 56.23073196 152.37950897 C54.60006667 152.38688559 52.96941716 152.4012906 51.33887863 152.42292023 C49.05027223 152.45206509 46.76288396 152.45595156 44.47412109 152.45410156 C43.17284271 152.46298401 41.87156433 152.47186646 40.53085327 152.48101807 C36.37003249 151.91417776 34.24183087 150.62195483 31 148 C27.85782361 143.36800575 27.55745101 139.08558519 27.6015625 133.63671875 C27.59869232 132.84529984 27.59582214 132.05388092 27.59286499 131.23847961 C27.59083156 129.57019329 27.59631083 127.90188274 27.60888672 126.23364258 C27.62488712 123.70533704 27.60904756 121.17864552 27.58984375 118.65039062 C27.57533766 108.1298999 27.62284445 98.72198317 35.2578125 90.57421875 C39.05579221 87.14241198 42.82568734 84.2264909 48 83.6875 C48.66 83.790625 49.32 83.89375 50 84 C50 83.34 50 82.68 50 82 C48.948125 81.896875 47.89625 81.79375 46.8125 81.6875 C39.72801471 80.40996987 36.10741145 76.61565879 32 71 C26.61562643 62.92286963 27.54628064 53.71537948 27.75 44.4375 C27.77009803 42.84051722 27.78834295 41.24350998 27.8046875 39.64648438 C27.84499127 35.76321623 27.92331202 31.88339417 28 28 C18.76 28 9.52 28 0 28 C0 18.76 0 9.52 0 0 Z " fill="#FDD833" transform="translate(379,127)"/>
<path d="M0 0 C2.97085779 0.31830619 3.87187168 0.84536237 5.8125 3.1875 C6.8953125 4.5796875 6.8953125 4.5796875 8 6 C9.71428788 7.56254469 11.48570757 9.04027598 13.265625 10.52734375 C16.46174071 13.24116272 19.31905181 16.11476735 21.875 19.4375 C24.12841955 22.15485887 26.55578163 24.26239044 29.25390625 26.51953125 C35.64656965 31.93970894 35.64656965 31.93970894 37 36 C37.99 36.33 38.98 36.66 40 37 C41.24234165 38.47119405 42.48117381 39.94601198 43.6796875 41.453125 C45.53787086 43.63016822 47.74256986 45.25049164 50 47 C52.84534021 49.69942533 55.46591314 52.5122403 58 55.5 C61.394569 59.50074204 64.91989116 63.12241157 69 66.4375 C72.07903881 69.06751232 74.45078401 71.8625034 77 75 C79.55612636 77.68720976 82.1199811 80.09748464 85 82.4375 C85.99 83.283125 86.98 84.12875 88 85 C88.87516769 85.7429129 89.75033539 86.48582581 90.65202332 87.25125122 C94.77746431 92.35735513 93.64993468 99.33019283 93.56762695 105.54248047 C93.5662156 107.0310308 93.56701017 108.51958462 93.56983948 110.00813293 C93.57127166 114.03894752 93.5419147 118.06901527 93.50696969 122.09965658 C93.47567282 126.31567676 93.47277284 130.53171483 93.46684265 134.74783325 C93.45131394 142.72701565 93.41029881 150.70585474 93.3600952 158.6848861 C93.30417132 167.77065628 93.27670761 176.85644302 93.25161803 185.94234252 C93.19938186 204.62846241 93.10770251 223.3141118 93 242 C76.5 242 60 242 43 242 C42.67 240.68 42.34 239.36 42 238 C41.05125 237.7525 40.1025 237.505 39.125 237.25 C36 236 36 236 34.41015625 232.57421875 C32.73509376 227.6620925 31.98943154 222.69312321 31.3125 217.5625 C31.18294922 216.67240234 31.05339844 215.78230469 30.91992188 214.86523438 C28.80163571 199.52166951 28.80163571 199.52166951 31.9375 192.625 C32.29714844 191.81289063 32.65679687 191.00078125 33.02734375 190.1640625 C33.34832031 189.44992187 33.66929687 188.73578125 34 188 C36.28158402 181.15524794 36.49952597 171.58718938 33.6953125 164.87890625 C33.15648437 163.97011719 32.61765625 163.06132812 32.0625 162.125 C27.80330632 154.83927339 28.05036059 147.49182457 28.0234375 139.26513672 C28.00204279 137.19742745 27.89606557 135.13103618 27.78125 133.06640625 C27.40605038 124.80263462 27.40605038 124.80263462 30.3125 120.875 C31.199375 120.25625 32.08625 119.6375 33 119 C33.556875 118.401875 34.11375 117.80375 34.6875 117.1875 C36 116 36 116 38 116 C39.780283 109.8330997 40.07598407 102.76747013 37 97 C33.18540376 97.37215573 30.98340073 98.0103354 27.6875 100.0625 C24.84898135 101.81023419 23.1266513 102.16482446 19.8125 101.9375 C12.50887129 101.58672538 5.63178085 104.91650683 0 109.375 C-4.10461324 114.76230488 -6.81968026 118.89610443 -6 126 C-5.01 127.485 -5.01 127.485 -4 129 C-4.51724138 132.51724138 -4.51724138 132.51724138 -6 134 C-5.88107588 135.80722197 -5.76006666 137.61433249 -5.62817383 139.4206543 C-5.00024517 150.52602109 -8.26668994 156.48909609 -15 165 C-15.85469359 166.14871862 -16.70625374 167.2997752 -17.5546875 168.453125 C-22.92394551 175.62857082 -28.82621662 182.23521036 -35.0534668 188.67553711 C-44.67623627 198.69431681 -51.18342991 208.5519308 -52.66088867 222.5546875 C-52.93359375 224.55859375 -52.93359375 224.55859375 -54 228 C-56.90625 229.80859375 -56.90625 229.80859375 -60 231 C-61.70052032 232.29032323 -61.70052032 232.29032323 -63.0625 233.625 C-65.93515958 235.94757583 -67.39337022 236.68176796 -71 237 C-71 237.66 -71 238.32 -71 239 C-77.31238861 242.64176266 -84.31916151 242.12792504 -91.375 242.0625 C-92.30183594 242.05798828 -93.22867188 242.05347656 -94.18359375 242.04882812 C-96.45579709 242.03711574 -98.72786388 242.02071372 -101 242 C-101.09340463 223.6850074 -101.16396014 205.37007654 -101.20724869 187.05489731 C-101.22788177 178.55100293 -101.2560165 170.04725647 -101.30175781 161.54345703 C-101.34160289 154.13230392 -101.36742739 146.72125791 -101.37635398 139.31000066 C-101.38157273 135.38504736 -101.39385378 131.46040051 -101.42292023 127.53554535 C-101.45005279 123.8419274 -101.45844954 120.14874239 -101.45243073 116.45503426 C-101.45405738 114.45187487 -101.47559149 112.44876274 -101.49768066 110.44572449 C-101.49218201 109.25383011 -101.48668335 108.06193573 -101.48101807 106.83392334 C-101.48470524 105.79782803 -101.48839241 104.76173271 -101.49219131 103.69424057 C-100.87239983 100.30152048 -99.68512756 99.09610344 -97 97 C-96.34 97 -95.68 97 -95 97 C-94.773125 96.443125 -94.54625 95.88625 -94.3125 95.3125 C-92.02290287 91.27844791 -88.63932715 88.5169028 -85.0625 85.625 C-82.15589411 83.25499828 -79.8326333 80.57462617 -77.4375 77.69921875 C-74.74037904 74.51104588 -71.87137577 71.67028906 -68.5625 69.125 C-65.84133864 66.86842716 -63.73131032 64.43782796 -61.47265625 61.734375 C-58.75883728 58.53825929 -55.88523265 55.68094819 -52.5625 53.125 C-49.84133864 50.86842716 -47.73131032 48.43782796 -45.47265625 45.734375 C-42.75883728 42.53825929 -39.88523265 39.68094819 -36.5625 37.125 C-33.84133864 34.86842716 -31.73131032 32.43782796 -29.47265625 29.734375 C-26.65980335 26.42162516 -23.64834064 23.51572551 -20.25 20.8125 C-17.92512612 19.19690923 -17.92512612 19.19690923 -17 17 C-16.34 17 -15.68 17 -15 17 C-14.773125 16.443125 -14.54625 15.88625 -14.3125 15.3125 C-11.98111224 11.2048168 -8.43572367 8.32495961 -4.8125 5.375 C-1.88119654 3.12277665 -1.88119654 3.12277665 0 0 Z " fill="#272726" transform="translate(209,108)"/>
<path d="M0 0 C2.87471524 4.24362725 2.54680694 10.05461374 2 15 C0.7814281 18.21965811 -0.88059791 20.05236605 -3.5 22.25 C-4.1084375 22.77078125 -4.716875 23.2915625 -5.34375 23.828125 C-7 25 -7 25 -9 25 C-9.05687913 29.22801522 -9.06255552 33.45268463 -9.02099609 37.68066406 C-9.00681052 39.24767503 -8.99949892 40.81476106 -8.99853516 42.38183594 C-9.06587026 54.22231037 -9.06587026 54.22231037 -4.9375 65.125 C-0.24053094 73.19473239 -0.62447065 82.58347109 -2.87890625 91.4609375 C-4.05431205 94.76595306 -5.43348281 97.86696562 -7 101 C-7.35808474 108.45882886 -6.30705016 115.47008471 -5.0625 122.8125 C-4.88009766 123.93076172 -4.69769531 125.04902344 -4.50976562 126.20117188 C-3.46028081 132.64306492 -3.46028081 132.64306492 -2 139 C-1.05125 139.0825 -0.1025 139.165 0.875 139.25 C4 140 4 140 5.375 141.875 C6 144 6 144 6 147 C6.3062434 148.33981486 6.63451555 149.67511887 7 151 C3.72311897 152.95218444 1.22930273 153.27063566 -2.5625 153.25 C-3.98755859 153.25773437 -3.98755859 153.25773437 -5.44140625 153.265625 C-8 153 -8 153 -11 151 C-11.1875 147.375 -11.1875 147.375 -11 144 C-11.99 144.33 -12.98 144.66 -14 145 C-13.79375 145.94875 -13.5875 146.8975 -13.375 147.875 C-13.25125 148.90625 -13.1275 149.9375 -13 151 C-15.59234689 153.59234689 -17.36069148 153.23764979 -20.89204407 153.25224304 C-22.09983772 153.24146477 -22.09983772 153.24146477 -23.33203125 153.23046875 C-24.57517342 153.22978142 -24.57517342 153.22978142 -25.84342957 153.2290802 C-27.59949166 153.22605594 -29.35555102 153.21816447 -31.11157227 153.20581055 C-33.79127589 153.18764389 -36.47063206 153.18530028 -39.15039062 153.18554688 C-40.8567738 153.18062802 -42.56315465 153.1747981 -44.26953125 153.16796875 C-45.46821587 153.16629951 -45.46821587 153.16629951 -46.69111633 153.16459656 C-50.61621654 153.13138298 -54.14650175 152.81585382 -58 152 C-58.33 152.33 -58.66 152.66 -59 153 C-68.50942447 153.83954172 -77.02777055 151.99074315 -86 149 C-86 148.34 -86 147.68 -86 147 C-88.97 147 -91.94 147 -95 147 C-95 147.66 -95 148.32 -95 149 C-105.60141345 152.90065147 -114.56627645 154.75553239 -126 154 C-127.10859375 153.94328125 -128.2171875 153.8865625 -129.359375 153.828125 C-134.83950888 153.47368848 -139.79948511 152.7729028 -145 151 C-145 150.34 -145 149.68 -145 149 C-145.5775 148.896875 -146.155 148.79375 -146.75 148.6875 C-149.35661158 147.89103535 -150.9735311 146.80934723 -153 145 C-153 144.34 -153 143.68 -153 143 C-151.37509046 142.97301811 -149.75005367 142.95361243 -148.125 142.9375 C-147.22007812 142.92589844 -146.31515625 142.91429687 -145.3828125 142.90234375 C-143 143 -143 143 -141 144 C-137.50577679 144.24310837 -134.00172683 144.18521428 -130.5 144.1875 C-129.54351562 144.19974609 -128.58703125 144.21199219 -127.6015625 144.22460938 C-121.16989591 144.23768187 -115.25085806 143.51050992 -109 142 C-109 141.34 -109 140.68 -109 140 C-107.7625 139.443125 -107.7625 139.443125 -106.5 138.875 C-102.92304728 136.95877533 -99.97278196 134.7530836 -96.83203125 132.20703125 C-95 131 -95 131 -92 131 C-92.0928125 129.329375 -92.0928125 129.329375 -92.1875 127.625 C-92.10540685 112.05466627 -82.18650319 100.57598714 -72 90 C-65.2696616 82.67077555 -59.04937919 74.89467511 -53 67 C-52.56349121 66.44650879 -52.12698242 65.89301758 -51.67724609 65.32275391 C-45.2283391 57.00199717 -44.20274035 50.596905 -44.9140625 40.45703125 C-44.94242187 39.31621094 -44.97078125 38.17539063 -45 37 C-44.01 36.01 -44.01 36.01 -43 35 C-43.35355436 32.73725212 -43.97544426 31.04911148 -45 29 C-45.55946917 23.29341451 -44.3560578 19.55464987 -41 15 C-36.0623685 9.42933882 -30.22724865 5.81006768 -23 4 C-21.5202676 3.9921151 -20.03950062 4.03478181 -18.5625 4.125 C-13.80764039 4.3467292 -11.00176574 2.63453992 -7.140625 -0.00390625 C-4.34883073 -1.3030076 -2.87969551 -0.96151722 0 0 Z " fill="#FBD834" transform="translate(247,205)"/>
<path d="M0 0 C18.81 0 37.62 0 57 0 C57 28.38 57 56.76 57 86 C38.19 86 19.38 86 0 86 C0 57.62 0 29.24 0 0 Z " fill="#262727" transform="translate(108,379)"/>
<path d="M0 0 C18.15 0 36.3 0 55 0 C55 32.01 55 64.02 55 97 C36.85 97 18.7 97 0 97 C0 87.76 0 78.52 0 69 C7.625 68.6875 7.625 68.6875 9.99072266 68.61206055 C14.6335563 68.36984112 17.95774734 67.49129771 22 65 C23.04115841 63.69855198 24.05377841 62.37202131 25 61 C25.66 61 26.32 61 27 61 C27 54.4 27 47.8 27 41 C18.09 41 9.18 41 0 41 C0 27.47 0 13.94 0 0 Z " fill="#272726" transform="translate(435,155)"/>
<path d="M0 0 C19.14 0 38.28 0 58 0 C58.0825 7.63125 58.165 15.2625 58.25 23.125 C58.28641602 25.52410645 58.32283203 27.92321289 58.36035156 30.39501953 C58.37203969 32.30760809 58.38223122 34.22020664 58.390625 36.1328125 C58.41108887 37.11693115 58.43155273 38.1010498 58.45263672 39.11499023 C58.45559365 44.94754679 58.04255674 48.47122798 54 53 C50.18314806 56.75583057 47.9628229 58.55492804 42.3923645 58.69985962 C41.69714691 58.69288055 41.00192932 58.68590149 40.28564453 58.67871094 C39.16243805 58.69667221 39.16243805 58.69667221 38.01654053 58.71499634 C35.55476479 58.7470526 33.09476102 58.74237921 30.6328125 58.734375 C28.91176755 58.74283038 27.19072805 58.75247227 25.46969604 58.76324463 C21.8667994 58.77961594 18.26451743 58.77694553 14.66162109 58.76171875 C10.05887158 58.74444726 5.45840609 58.78155582 0.85598946 58.83398056 C-2.69761991 58.86716663 -6.25068565 58.86764501 -9.80441666 58.85883331 C-11.50040554 58.85919179 -13.19643 58.87039674 -14.89226913 58.89293671 C-29.77322171 59.06446244 -29.77322171 59.06446244 -34.92626953 54.68847656 C-37.96061158 51.39952031 -40.43731907 47.66097275 -43 44 C-43.99 43.67 -44.98 43.34 -46 43 C-47.46484375 41.2578125 -47.46484375 41.2578125 -48.9375 39.125 C-50.57259049 36.76174921 -51.87576391 35.09256806 -54.19140625 33.3671875 C-55.08666016 32.69042969 -55.08666016 32.69042969 -56 32 C-56 31.34 -56 30.68 -56 30 C-56.66 30 -57.32 30 -58 30 C-58 29.34 -58 28.68 -58 28 C-57.34 28 -56.68 28 -56 28 C-55.67 27.01 -55.34 26.02 -55 25 C-54.34 25 -53.68 25 -53 25 C-52.731875 24.360625 -52.46375 23.72125 -52.1875 23.0625 C-51 21 -51 21 -48 20 C-47.67 19.01 -47.34 18.02 -47 17 C-46.34 17 -45.68 17 -45 17 C-45 16.34 -45 15.68 -45 15 C-42 15 -42 15 -39.5 17.3125 C-38.2625 18.6428125 -38.2625 18.6428125 -37 20 C-36.401875 20.556875 -35.80375 21.11375 -35.1875 21.6875 C-34 23 -34 23 -34 25 C-33.34 25 -32.68 25 -32 25 C-31.34 25.99 -30.68 26.98 -30 28 C-27.45861699 28.47775114 -27.45861699 28.47775114 -24.44873047 28.43237305 C-23.28767792 28.45216721 -22.12662537 28.47196136 -20.9303894 28.49235535 C-19.67203278 28.49874527 -18.41367615 28.50513519 -17.1171875 28.51171875 C-15.83264679 28.52966995 -14.54810608 28.54762115 -13.22463989 28.56611633 C-9.80850339 28.61368892 -6.39243324 28.64345073 -2.97607422 28.66955566 C0.50957349 28.69932502 3.99499231 28.74586762 7.48046875 28.79101562 C14.32019775 28.877131 21.15996796 28.9428893 28 29 C28 24.38 28 19.76 28 15 C18.76 15 9.52 15 0 15 C0 10.05 0 5.1 0 0 Z " fill="#63C5CF" transform="translate(368,559)"/>
<path d="M0 0 C19.14 0 38.28 0 58 0 C58 18.81 58 37.62 58 57 C38.86 57 19.72 57 0 57 C0 38.19 0 19.38 0 0 Z " fill="#262929" transform="translate(483,437)"/>
<path d="M0 0 C91.41 0 182.82 0 277 0 C277 9.24 277 18.48 277 28 C267.76 28 258.52 28 249 28 C249 48.13 249 68.26 249 89 C248.67 89 248.34 89 248 89 C248 68.21 248 47.42 248 26 C256.58 25.67 265.16 25.34 274 25 C274 17.41 274 9.82 274 2 C184.24 2 94.48 2 2 2 C2 9.92 2 17.84 2 26 C10.25 26 18.5 26 27 26 C27.33 26.66 27.66 27.32 28 28 C18.76 28 9.52 28 0 28 C0 18.76 0 9.52 0 0 Z " fill="#DEC44E" transform="translate(379,127)"/>
<path d="M0 0 C0.66 0 1.32 0 2 0 C2.01030746 1.24614578 2.02061493 2.49229156 2.03123474 3.77619934 C2.12887362 15.5040825 2.23159865 27.23191147 2.33933926 38.95970631 C2.39456894 44.9894762 2.44798909 51.01925095 2.49731445 57.04907227 C2.54495722 62.8651477 2.59730012 68.68116336 2.65294075 74.49716759 C2.67336468 76.71916916 2.69207769 78.94118711 2.70907402 81.16321754 C2.73311707 84.26878423 2.76317196 87.37423766 2.79467773 90.47973633 C2.80331093 91.86616837 2.80331093 91.86616837 2.81211853 93.28060913 C2.82190735 94.12614853 2.83169617 94.97168793 2.84178162 95.84284973 C2.84823417 96.57751874 2.85468672 97.31218775 2.8613348 98.06911945 C2.93572391 100.21960717 2.93572391 100.21960717 4 103 C4.08610514 104.42718637 4.11771828 105.85806648 4.11352539 107.2878418 C4.11344986 108.14850754 4.11337433 109.00917328 4.11329651 109.8959198 C4.10813522 110.82100845 4.10297394 111.74609711 4.09765625 112.69921875 C4.0962413 113.64940384 4.09482635 114.59958893 4.09336853 115.5785675 C4.08776875 118.61491029 4.07521632 121.65117948 4.0625 124.6875 C4.05748497 126.74544164 4.05292207 128.80338444 4.04882812 130.86132812 C4.03865008 135.90760329 4.01907456 140.9537192 4 146 C12.25 146 20.5 146 29 146 C28.63310253 138.08742058 28.63310253 138.08742058 28.25170898 130.17553711 C28.18705444 128.6790564 28.18705444 128.6790564 28.12109375 127.15234375 C28.05039673 125.6362854 28.05039673 125.6362854 27.97827148 124.08959961 C28 121 28 121 28.48852539 117.83276367 C29.03542706 113.7345253 29.17370149 109.71190413 29.20532227 105.58618164 C29.21522186 104.7756131 29.22512146 103.96504456 29.23532104 103.12991333 C29.26669417 100.47335648 29.29159693 97.8167818 29.31640625 95.16015625 C29.33699671 93.3092759 29.35799371 91.45840002 29.37937927 89.60752869 C29.43438395 84.7529566 29.48388787 79.8983436 29.53222656 75.04370117 C29.58260002 70.08313385 29.63820312 65.12262541 29.69335938 60.16210938 C29.80067643 50.44145664 29.90217936 40.72075262 30 31 C30.66 31.33 31.32 31.66 32 32 C31.67 71.6 31.34 111.2 31 152 C12.02392165 152.65434753 -6.84176607 153.13452872 -25.8125 153.0625 C-28.1855459 153.05746031 -30.55859287 153.05290189 -32.93164062 153.04882812 C-38.62111804 153.03805159 -44.31055357 153.0215208 -50 153 C-50 152.67 -50 152.34 -50 152 C-33.17 152 -16.34 152 1 152 C0.67 101.84 0.34 51.68 0 0 Z " fill="#438990" transform="translate(301,198)"/>
<path d="M0 0 C18.15 0 36.3 0 55 0 C55 32.01 55 64.02 55 97 C36.85 97 18.7 97 0 97 C0 87.76 0 78.52 0 69 C7.6875 68.5625 7.6875 68.5625 10.08081055 68.43188477 C13.80343045 68.20925242 17.35644339 67.85519376 21 67 C20.34 67.99 19.68 68.98 19 70 C16.03237603 70.22212754 13.33095985 70.28037029 10.375 70.1875 C7.61125 70.125625 4.8475 70.06375 2 70 C2 77.92 2 85.84 2 94 C18.83 94 35.66 94 53 94 C53 63.31 53 32.62 53 1 C27.755 1.495 27.755 1.495 2 2 C1.67 14.54 1.34 27.08 1 40 C9.58 40 18.16 40 27 40 C27 40.33 27 40.66 27 41 C18.09 41 9.18 41 0 41 C0 27.47 0 13.94 0 0 Z " fill="#433A14" transform="translate(435,155)"/>
<path d="M0 0 C19.14 0 38.28 0 58 0 C58 33 58 66 58 100 C48.615625 100.020625 39.23125 100.04125 29.5625 100.0625 C26.59580322 100.071604 23.62910645 100.08070801 20.57250977 100.09008789 C18.23714239 100.0930068 15.90177451 100.09555542 13.56640625 100.09765625 C11.72798157 100.1053302 11.72798157 100.1053302 9.85241699 100.11315918 C8.69528198 100.11328003 7.53814697 100.11340088 6.34594727 100.11352539 C5.335569 100.115746 4.32519073 100.11796661 3.28419495 100.12025452 C1 100 1 100 0 99 C-0.09993532 96.9394469 -0.13080906 94.8754741 -0.1328125 92.8125 C-0.13410156 91.55695313 -0.13539063 90.30140625 -0.13671875 89.0078125 C-0.13462402 88.35071289 -0.1325293 87.69361328 -0.13037109 87.01660156 C-0.12502234 85.00838665 -0.13031691 83.00039541 -0.13671875 80.9921875 C-0.13542969 79.73664063 -0.13414062 78.48109375 -0.1328125 77.1875 C-0.13168457 76.02605469 -0.13055664 74.86460937 -0.12939453 73.66796875 C0 71 0 71 1 70 C3.35313555 69.92728259 5.70833668 69.91629132 8.0625 69.9375 C9.99802734 69.95103516 9.99802734 69.95103516 11.97265625 69.96484375 C12.97167969 69.97644531 13.97070312 69.98804688 15 70 C15.495 69.01 15.495 69.01 16 68 C18.31 68 20.62 68 23 68 C20.10945348 70.89054652 18.27830867 70.99283448 14.20703125 71.09765625 C12.7421517 71.09195919 11.27729765 71.07900435 9.8125 71.0625 C7.234375 71.041875 4.65625 71.02125 2 71 C2 80.24 2 89.48 2 99 C20.15 99 38.3 99 57 99 C57 66.99 57 34.98 57 2 C38.85 2 20.7 2 2 2 C2 15.53 2 29.06 2 43 C10.91 43 19.82 43 29 43 C29 49.6 29 56.2 29 63 C28.34 63 27.68 63 27 63 C26.67 63.66 26.34 64.32 26 65 C25.957279 63.33388095 25.95936168 61.66617115 26 60 C26.33 59.67 26.66 59.34 27 59 C27.23527773 56.65012738 27.41386417 54.29443961 27.5625 51.9375 C27.706875 49.648125 27.85125 47.35875 28 45 C18.76 45 9.52 45 0 45 C0 30.15 0 15.3 0 0 Z " fill="#DEC44C" transform="translate(433,153)"/>
<path d="M0 0 C0.99 0.33 1.98 0.66 3 1 C3 15.19 3 29.38 3 44 C-3.29032258 42.74193548 -3.29032258 42.74193548 -6 41 C-6.495 39.515 -6.495 39.515 -7 38 C-7.99 37.67 -8.98 37.34 -10 37 C-10 74.62 -10 112.24 -10 151 C96.59 151 203.18 151 313 151 C313 151.33 313 151.66 313 152 C206.08 152 99.16 152 -11 152 C-11 112.4 -11 72.8 -11 32 C-5.40662374 35.35602576 -5.40662374 35.35602576 -3.3125 38.125 C-1.31643663 41.01538782 -1.31643663 41.01538782 1 42 C1.02467467 36.34000977 1.04284788 30.68005068 1.05493164 25.02001953 C1.05996787 23.09358169 1.06679712 21.16714769 1.07543945 19.24072266 C1.08753608 16.47557632 1.09323533 13.71048042 1.09765625 10.9453125 C1.10281754 10.0806839 1.10797882 9.2160553 1.11329651 8.32522583 C1.24383889 4.02748998 1.24383889 4.02748998 0 0 Z " fill="#183233" transform="translate(343,198)"/>
<path d="M0 0 C20.7590625 -0.0309375 20.7590625 -0.0309375 41.9375 -0.0625 C48.50192993 -0.07615601 48.50192993 -0.07615601 55.19897461 -0.09008789 C60.52648926 -0.09460449 60.52648926 -0.09460449 63.01734924 -0.09544373 C64.76397455 -0.09698335 66.51059877 -0.10050865 68.25721741 -0.10557556 C70.89667621 -0.11285244 73.53606984 -0.11390744 76.17553711 -0.11352539 C76.95888144 -0.1171235 77.74222578 -0.12072161 78.54930782 -0.12442875 C83.88597366 -0.11402634 83.88597366 -0.11402634 85 1 C85.09370624 2.77991924 85.11744271 4.56356739 85.11352539 6.34594727 C85.11341209 8.05760826 85.11341209 8.05760826 85.11329651 9.80384827 C85.10813522 11.0454924 85.10297394 12.28713654 85.09765625 13.56640625 C85.0962413 14.83016586 85.09482635 16.09392548 85.09336853 17.39598083 C85.08870582 20.76124889 85.0797148 24.1264499 85.06866455 27.49169922 C85.05844846 30.92349659 85.05381578 34.35530108 85.04882812 37.78710938 C85.03862263 44.52477754 85.01905091 51.26232771 85 58 C66.85 58 48.7 58 30 58 C30 63.94 30 69.88 30 76 C29.67 76 29.34 76 29 76 C29 69.73 29 63.46 29 57 C47.15 57 65.3 57 84 57 C84 38.85 84 20.7 84 2 C56.94 2 29.88 2 2 2 C2 56.78 2 111.56 2 168 C0.02 168 -1.96 168 -4 168 C-4 167.67 -4 167.34 -4 167 C-2.35 167 -0.7 167 1 167 C0.67 111.89 0.34 56.78 0 0 Z " fill="#B9A33A" transform="translate(516,153)"/>
<path d="M0 0 C0.84715606 0.00037972 1.69431211 0.00075944 2.56713957 0.00115067 C3.54099798 -0.00084038 4.51485639 -0.00283143 5.51822567 -0.00488281 C6.6008874 -0.00196997 7.68354914 0.00094287 8.7990188 0.00394398 C10.5092671 0.00266234 10.5092671 0.00266234 12.25406587 0.00135481 C15.43286061 -0.00001331 18.61161512 0.00313395 21.79040509 0.00813287 C25.21305073 0.01243423 28.63569434 0.01099118 32.05834192 0.0102306 C37.99297848 0.00970516 43.92760407 0.012854 49.86223787 0.01846844 C58.44281858 0.0265808 67.02339396 0.02919839 75.60397809 0.03045643 C89.52397005 0.03264737 103.44395616 0.03930858 117.36394495 0.04875904 C130.88933527 0.05793208 144.41472402 0.06501344 157.94011682 0.06926686 C159.18978039 0.06966094 159.18978039 0.06966094 160.46468968 0.07006299 C164.64397492 0.07136798 168.82326016 0.0726317 173.00254542 0.07387489 C207.69731623 0.0842488 242.39208024 0.10186825 277.08684534 0.1241985 C277.08684534 0.4541985 277.08684534 0.7841985 277.08684534 1.1241985 C185.67684534 1.1241985 94.26684534 1.1241985 0.08684534 1.1241985 C0.08684534 10.3641985 0.08684534 19.6041985 0.08684534 29.1241985 C9.32684534 29.1241985 18.56684534 29.1241985 28.08684534 29.1241985 C28.12422815 31.47415943 28.16161096 33.82412037 28.20012659 36.24529225 C28.24648353 38.54901057 28.29766519 40.85257546 28.34929651 43.15618092 C28.38232513 44.74364927 28.41042402 46.33122884 28.43328089 47.91887623 C28.55893842 56.41813771 28.68497189 64.18041359 32.08684534 72.1241985 C31.09684534 71.7941985 30.10684534 71.4641985 29.08684534 71.1241985 C25.18364366 62.90836839 25.74355782 54.43766773 25.89934534 45.5616985 C25.91442142 44.0610609 25.92810465 42.56040864 25.94036096 41.05974537 C25.97313052 37.41425398 26.02475054 33.76932215 26.08684534 30.1241985 C25.274172 30.15972828 24.46149866 30.19525807 23.62419885 30.23186451 C19.96612044 30.38881523 16.30776251 30.53786284 12.64934534 30.6866985 C11.36995081 30.74277272 10.09055628 30.79884693 8.77239221 30.85662037 C6.9499801 30.92913014 6.9499801 30.92913014 5.09075159 31.00310475 C3.96483606 31.05023609 2.83892053 31.09736744 1.67888635 31.14592701 C-0.91315466 31.1241985 -0.91315466 31.1241985 -1.91315466 30.1241985 C-2.24414726 25.994463 -2.33945073 21.8540894 -2.47077185 17.71355397 C-2.53788193 15.63265521 -2.61561704 13.55234031 -2.69440466 11.47185475 C-2.73823279 10.17119068 -2.78206091 8.87052662 -2.82721716 7.5304485 C-2.86798376 6.32710865 -2.90875036 5.12376881 -2.95075232 3.88396412 C-2.9004043 0.18828893 -2.9004043 0.18828893 0 0 Z " fill="#382C02" transform="translate(378.9131546616554,125.8758015036583)"/>
<path d="M0 0 C0.33 0 0.66 0 1 0 C1 49.17 1 98.34 1 149 C0.67 149 0.34 149 0 149 C0 138.11 0 127.22 0 116 C-28.38 116 -56.76 116 -86 116 C-86 115.67 -86 115.34 -86 115 C-57.62 115 -29.24 115 0 115 C-0.99 103.615 -0.99 103.615 -2 92 C-2 91.34 -2 90.68 -2 90 C-2.9075 90.04125 -3.815 90.0825 -4.75 90.125 C-7.8782046 90.00468444 -9.38614006 89.6085292 -12 88 C-12 88.66 -12 89.32 -12 90 C-13.23097412 89.91020874 -13.23097412 89.91020874 -14.48681641 89.81860352 C-23.78023991 89.1469856 -33.07637337 88.53179782 -42.375 87.9375 C-43.80469045 87.84574908 -45.23437796 87.75395241 -46.6640625 87.66210938 C-50.10934151 87.44088169 -53.55465919 87.22026327 -57 87 C-57 86.67 -57 86.34 -57 86 C-38.19 86 -19.38 86 0 86 C0 57.62 0 29.24 0 0 Z " fill="#44797E" transform="translate(165,379)"/>
<path d="M0 0 C18.81 0 37.62 0 57 0 C57 28.38 57 56.76 57 86 C38.19 86 19.38 86 0 86 C0 57.62 0 29.24 0 0 Z M2 2 C0.7936335 5.61909951 0.86810944 8.91823243 0.88647461 12.68432617 C0.88632858 13.4650499 0.88618256 14.24577362 0.8860321 15.05015564 C0.88672886 17.63112159 0.89451018 20.2120154 0.90234375 22.79296875 C0.90420877 24.58230042 0.90563228 26.3716326 0.90663147 28.16096497 C0.91045001 32.87097584 0.92027467 37.58095589 0.93133545 42.29095459 C0.94336206 47.94191603 0.94795497 53.59288777 0.95378876 59.24385834 C0.96348675 67.82926033 0.98264796 76.41459469 1 85 C19.15 85 37.3 85 56 85 C56 57.61 56 30.22 56 2 C38.18 2 20.36 2 2 2 Z " fill="#1B3234" transform="translate(108,379)"/>
<path d="M0 0 C0.33 0 0.66 0 1 0 C1.33 24.09 1.66 48.18 2 73 C2.66 73 3.32 73 4 73 C4 73.99 4 74.98 4 76 C5.65 76.66 7.3 77.32 9 78 C9 78.66 9 79.32 9 80 C28.47 80 47.94 80 68 80 C67.67 72.41 67.34 64.82 67 57 C54.46 56.67 41.92 56.34 29 56 C28.67 55.34 28.34 54.68 28 54 C41.53 54 55.06 54 69 54 C69 63.24 69 72.48 69 82 C61.32048816 82.14714393 53.64612928 82.28730926 45.96643066 82.36225128 C42.38976252 82.39909799 38.8142705 82.44826049 35.23828125 82.52807617 C31.78871661 82.60458125 28.34028638 82.64608058 24.88993835 82.6641407 C22.94435148 82.68322011 20.99921628 82.7377966 19.05432129 82.79307556 C12.96451405 82.79575728 8.93697941 82.63905932 4.19335938 78.58227539 C0.10032806 74.38851149 -0.12360448 71.93780502 -0.11352539 66.07177734 C-0.11367142 65.35947464 -0.11381744 64.64717194 -0.1139679 63.9132843 C-0.11327011 61.55413794 -0.10548397 59.19507011 -0.09765625 56.8359375 C-0.0957916 55.20211836 -0.09436792 53.56829866 -0.09336853 51.93447876 C-0.08954709 47.6305182 -0.07971998 43.32659129 -0.06866455 39.02264404 C-0.05844242 34.63228816 -0.05386919 30.24192685 -0.04882812 25.8515625 C-0.03809739 17.23435954 -0.02102543 8.61718396 0 0 Z " fill="#E4C956" transform="translate(559,239)"/>
<path d="M0 0 C19.14 0 38.28 0 58 0 C58.061875 7.693125 58.12375 15.38625 58.1875 23.3125 C58.22846802 26.95212769 58.22846802 26.95212769 58.27026367 30.6652832 C58.27902432 32.58544415 58.28666925 34.50561065 58.29296875 36.42578125 C58.30831665 37.4252478 58.32366455 38.42471436 58.33947754 39.45446777 C58.33984009 40.40833374 58.34020264 41.36219971 58.34057617 42.3449707 C58.34723801 43.17325882 58.35389984 44.00154694 58.36076355 44.85493469 C58 47 58 47 55 50 C55 34.16 55 18.32 55 2 C37.18 2 19.36 2 1 2 C1 5.63 1 9.26 1 13 C9.58 13 18.16 13 27 13 C27 13.33 27 13.66 27 14 C18.09 14 9.18 14 0 14 C0 9.38 0 4.76 0 0 Z " fill="#65B0B7" transform="translate(368,559)"/>
<path d="M0 0 C7.12600133 -0.35368021 12.47059106 0.04328652 19 3 C18.8125 4.75 18.8125 4.75 18 7 C16.35 8.32 14.7 9.64 13 11 C17.29 11.33 21.58 11.66 26 12 C26 12.33 26 12.66 26 13 C20.67977231 13.02476651 15.35957838 13.04289156 10.03930664 13.05493164 C8.23038142 13.05995238 6.42146024 13.06677029 4.61254883 13.07543945 C2.00861614 13.08760402 -0.59526277 13.09325098 -3.19921875 13.09765625 C-4.40731453 13.10539818 -4.40731453 13.10539818 -5.63981628 13.11329651 C-9.59205289 13.11368908 -13.12013406 12.83170243 -17 12 C-17.33 12.33 -17.66 12.66 -18 13 C-26.42397059 13.74371217 -33.94943982 12.3980392 -42 10 C-38.12338943 8.65809634 -34.38375001 9.12034627 -30.375 9.4375 C-23.99537823 9.8764648 -17.64505829 10.11511685 -11.25 10.125 C-10.50024902 10.12943115 -9.75049805 10.1338623 -8.97802734 10.13842773 C-5.19405518 10.12854455 -1.67804459 9.9122709 2 9 C1.484375 8.071875 0.96875 7.14375 0.4375 6.1875 C-1 3 -1 3 0 0 Z " fill="#E5D84C" transform="translate(206,345)"/>
<path d="M0 0 C0.66 0.33 1.32 0.66 2 1 C1.67 1.99 1.34 2.98 1 4 C1.66 4.33 2.32 4.66 3 5 C2.18638 5.26496277 1.37276001 5.52992554 0.53448486 5.80291748 C-2.16166233 7.69399442 -2.16166233 7.69399442 -2.45835114 10.15787506 C-2.61161337 13.16644592 -2.60572886 16.14116016 -2.55175781 19.15332031 C-2.55088165 20.30318924 -2.55000549 21.45305817 -2.54910278 22.63777161 C-2.54049877 26.45171441 -2.49668153 30.26443446 -2.453125 34.078125 C-2.44125999 36.72506792 -2.43174932 39.37202235 -2.42449951 42.01898193 C-2.40378169 48.28647111 -2.3584391 54.55351921 -2.30355334 60.82079291 C-2.22414105 70.00190396 -2.1792269 79.18319588 -2.13712692 88.36454391 C-2.13086719 89.72241974 -2.12460727 91.08029556 -2.11834717 92.43817139 C-2.11534945 93.10156989 -2.11235174 93.76496839 -2.10926318 94.44846988 C-2.08764387 99.01256492 -2.05328438 103.57645999 -2.01495361 108.14044189 C-1.99853319 110.53666149 -1.98215327 112.93288137 -1.96582031 115.32910156 C-1.95436981 116.41195938 -1.94291931 117.4948172 -1.93112183 118.61048889 C-1.90060753 123.8598666 -2.07090571 128.82967058 -3 134 C-5.52916756 131.47083244 -5.25609529 130.60926893 -5.27415466 127.10580444 C-5.28911736 125.55398972 -5.28911736 125.55398972 -5.30438232 123.9708252 C-5.305047 122.83109253 -5.30571167 121.69135986 -5.30639648 120.51708984 C-5.31472 119.32020538 -5.32304352 118.12332092 -5.33161926 116.89016724 C-5.35163283 113.60052581 -5.36236927 110.31113796 -5.36744571 107.0214572 C-5.37108711 104.96468851 -5.37732627 102.90794424 -5.3844471 100.85118484 C-5.40896315 93.67079854 -5.42199643 86.4904846 -5.42553711 79.31005859 C-5.42916575 72.62644935 -5.45900673 65.94330122 -5.50094169 59.25983274 C-5.53570556 53.51702382 -5.55108666 47.7743671 -5.55178314 42.03145373 C-5.55257443 38.60377804 -5.56124207 35.17657098 -5.58978081 31.74900436 C-5.61667425 27.9186898 -5.61187315 24.08963854 -5.59936523 20.25927734 C-5.61419952 19.13169006 -5.62903381 18.00410278 -5.64431763 16.84234619 C-5.5796974 9.88329068 -4.42764606 5.44441611 0 0 Z " fill="#72BCC4" transform="translate(286,410)"/>
<path d="M0 0 C3.24067892 3.24067892 4.20936289 7.79301206 5.70117188 12.05859375 C7.07220502 15.86662954 8.42782331 18.8212503 11 22 C11 22.66 11 23.32 11 24 C8.39555652 24.05394705 5.79223002 24.09364469 3.1875 24.125 C2.44951172 24.14175781 1.71152344 24.15851563 0.95117188 24.17578125 C-2.91246426 24.21074628 -4.70903668 24.19397555 -8 22 C-7.53786027 19.84334791 -7.05038071 18.0900746 -5.96875 16.15625 C-4.85065598 13.66758912 -4.79524993 11.9615024 -4.875 9.25 C-4.89304688 8.45078125 -4.91109375 7.6515625 -4.9296875 6.828125 C-4.95289063 6.22484375 -4.97609375 5.6215625 -5 5 C-4.360625 4.731875 -3.72125 4.46375 -3.0625 4.1875 C-0.66868314 3.11332248 -0.66868314 3.11332248 0 0 Z " fill="#3C3620" transform="translate(221,318)"/>
<path d="M0 0 C0.33 0 0.66 0 1 0 C1 56.1 1 112.2 1 170 C-6.875 170 -6.875 170 -11.4375 167.5 C-12.30246094 167.0359375 -13.16742188 166.571875 -14.05859375 166.09375 C-15.01958984 165.55234375 -15.01958984 165.55234375 -16 165 C-12.69564916 163.87622303 -10.9493138 164.10445258 -7.75 165.4375 C-7.04359375 165.72496094 -6.3371875 166.01242187 -5.609375 166.30859375 C-5.07828125 166.53675781 -4.5471875 166.76492188 -4 167 C-4 167.66 -4 168.32 -4 169 C-2.68 169 -1.36 169 0 169 C0 113.23 0 57.46 0 0 Z " fill="#73C2C9" transform="translate(424,382)"/>
<path d="M0 0 C1.00978157 0.48513565 1.00978157 0.48513565 2.03996277 0.98007202 C5.61470815 2.21180749 8.57888274 2.28019301 12.3605957 2.31884766 C13.08309006 2.32889328 13.80558441 2.3389389 14.54997253 2.34928894 C16.92523442 2.38004662 19.30038396 2.39713516 21.67578125 2.4140625 C23.32774314 2.43278014 24.97969553 2.452354 26.63163757 2.4727478 C30.97000521 2.52401211 35.30840382 2.56366826 39.64691162 2.60089111 C44.07783638 2.64096657 48.50863291 2.69204274 52.93945312 2.7421875 C61.62622084 2.83887934 70.31304174 2.92228838 79 3 C79 9.93 79 16.86 79 24 C76.47224649 20.20836973 76.77556965 17.19125969 76.875 12.8125 C76.88402344 12.06291016 76.89304687 11.31332031 76.90234375 10.54101562 C76.92587422 8.69387346 76.96174439 6.84689588 77 5 C76.09433289 5.00444122 75.18866577 5.00888245 74.2555542 5.01345825 C65.72144789 5.05352856 57.18737317 5.08398117 48.65319443 5.10362434 C44.26566302 5.11406257 39.87820933 5.12822249 35.49072266 5.15087891 C31.25673915 5.17260589 27.02283042 5.18456834 22.78879547 5.18975449 C21.17325921 5.1934505 19.55772704 5.20066785 17.9422226 5.21146011 C15.67981617 5.22597318 13.41771891 5.22797803 11.15527344 5.22705078 C9.86731873 5.231492 8.57936401 5.23593323 7.25238037 5.24050903 C4.21303682 5.01575378 2.53887454 4.61183256 0 3 C0 2.01 0 1.02 0 0 Z " fill="#4B4010" transform="translate(411,276)"/>
<path d="M0 0 C17.82 0 35.64 0 54 0 C54 0.33 54 0.66 54 1 C36.51 1 19.02 1 1 1 C1.12916495 14.56919537 1.12916495 14.56919537 4 21 C4.66 21.33 5.32 21.66 6 22 C6 22.66 6 23.32 6 24 C7.11375 23.95875 8.2275 23.9175 9.375 23.875 C13 24 13 24 15 26 C15.24050903 28.9359436 15.24050903 28.9359436 15.22705078 32.74462891 C15.22734283 33.43742447 15.22763489 34.13022003 15.22793579 34.8440094 C15.22654031 37.13832034 15.21096919 39.43230816 15.1953125 41.7265625 C15.19158314 43.31553978 15.1887358 44.90451936 15.18673706 46.49349976 C15.17909453 50.67914154 15.15944081 54.8646449 15.1373291 59.05023193 C15.11688396 63.31992724 15.1077382 67.58964487 15.09765625 71.859375 C15.07619543 80.23964691 15.04205211 88.61980625 15 97 C14.67 97 14.34 97 14 97 C13.67 74.23 13.34 51.46 13 28 C10.69 27.34 8.38 26.68 6 26 C4.02 24.02 2.04 22.04 0 20 C0 13.4 0 6.8 0 0 Z " fill="#F9D742" transform="translate(546,211)"/>
<path d="M0 0 C0.5775 0.20625 1.155 0.4125 1.75 0.625 C0.33521865 1.27495297 -1.08191487 1.91978722 -2.5 2.5625 C-3.28890625 2.92214844 -4.0778125 3.28179687 -4.890625 3.65234375 C-12.98367156 6.98871559 -18.18214845 5.625 -28.25 5.625 C-28.25 23.775 -28.25 41.925 -28.25 60.625 C-28.91 60.625 -29.57 60.625 -30.25 60.625 C-30.25 41.815 -30.25 23.005 -30.25 3.625 C-18.37 2.635 -18.37 2.635 -6.25 1.625 C-2.25 -0.375 -2.25 -0.375 0 0 Z " fill="#D5BE4A" transform="translate(615.25,232.375)"/>
<path d="M0 0 C1.2684375 0.495 1.2684375 0.495 2.5625 1 C6.20989216 2.06105954 9.22274664 2.15109013 13 2 C13 2.33 13 2.66 13 3 C11.02 3 9.04 3 7 3 C7 3.66 7 4.32 7 5 C31.42 5 55.84 5 81 5 C81 5.66 81 6.32 81 7 C71.45528816 7.09278251 61.91073217 7.16380665 52.36566734 7.20724869 C47.93323178 7.22810139 43.50110533 7.25637633 39.06884766 7.30175781 C34.78944496 7.34529877 30.51033912 7.36915454 26.23073196 7.37950897 C24.60006667 7.38688559 22.96941716 7.4012906 21.33887863 7.42292023 C19.05027223 7.45206509 16.76288396 7.45595156 14.47412109 7.45410156 C12.52220352 7.46742523 12.52220352 7.46742523 10.53085327 7.48101807 C6.36789755 6.91388691 4.21062593 5.6709599 1 3 C0.67 2.01 0.34 1.02 0 0 Z " fill="#F2D54C" transform="translate(409,272)"/>
<path d="M0 0 C26.07 0.33 52.14 0.66 79 1 C79 4.63 79 8.26 79 12 C76.70986347 8.5647952 76.82157027 7.014669 77 3 C76.09433289 3.00444122 75.18866577 3.00888245 74.2555542 3.01345825 C65.72144789 3.05352856 57.18737317 3.08398117 48.65319443 3.10362434 C44.26566302 3.11406257 39.87820933 3.12822249 35.49072266 3.15087891 C31.25673915 3.17260589 27.02283042 3.18456834 22.78879547 3.18975449 C21.17325921 3.1934505 19.55772704 3.20066785 17.9422226 3.21146011 C15.67981617 3.22597318 13.41771891 3.22797803 11.15527344 3.22705078 C9.86731873 3.231492 8.57936401 3.23593323 7.25238037 3.24050903 C4.21303682 3.01575378 2.53887454 2.61183256 0 1 C0 0.67 0 0.34 0 0 Z M75 8 C75.66 8.66 76.32 9.32 77 10 C76.34 10 75.68 10 75 10 C75 9.34 75 8.68 75 8 Z " fill="#1D383A" transform="translate(462,522)"/>
<path d="M0 0 C1.62490954 -0.02698189 3.24994633 -0.04638757 4.875 -0.0625 C5.77992187 -0.07410156 6.68484375 -0.08570313 7.6171875 -0.09765625 C10 0 10 0 12 1 C13.9593604 1.08510205 15.92162794 1.10717656 17.8828125 1.09765625 C19.63271484 1.09282227 19.63271484 1.09282227 21.41796875 1.08789062 C23.25294922 1.07532227 23.25294922 1.07532227 25.125 1.0625 C26.97158203 1.05573242 26.97158203 1.05573242 28.85546875 1.04882812 C31.90369392 1.0370133 34.95182314 1.02054028 38 1 C34.92308234 3.05127844 34.06355001 3.27260872 30.55078125 3.4140625 C29.27944336 3.47207031 29.27944336 3.47207031 27.98242188 3.53125 C26.66081055 3.57765625 26.66081055 3.57765625 25.3125 3.625 C24.41982422 3.66367187 23.52714844 3.70234375 22.60742188 3.7421875 C20.4051538 3.83640218 18.20289278 3.92201588 16 4 C15.67 4.66 15.34 5.32 15 6 C15.66 6.33 16.32 6.66 17 7 C17 7.66 17 8.32 17 9 C25.91 9 34.82 9 44 9 C44 8.34 44 7.68 44 7 C46.64 7 49.28 7 52 7 C52 7.33 52 7.66 52 8 C38.79594062 13.219487 21.41632983 12.57374881 8 8 C8 7.34 8 6.68 8 6 C7.4225 5.896875 6.845 5.79375 6.25 5.6875 C3.64338842 4.89103535 2.0264689 3.80934723 0 2 C0 1.34 0 0.68 0 0 Z " fill="#E1D247" transform="translate(94,348)"/>
<path d="M0 0 C0.66 0.33 1.32 0.66 2 1 C1.34 2.32 0.68 3.64 0 5 C-0.99 5 -1.98 5 -3 5 C-3 50.87 -3 96.74 -3 144 C-3.33 144 -3.66 144 -4 144 C-4.09340551 125.81539151 -4.16396057 107.6308452 -4.20724869 89.44604874 C-4.22788158 81.00268794 -4.25601595 72.55947612 -4.30175781 64.11621094 C-4.34160347 56.75779553 -4.36742753 49.399488 -4.37635398 42.0409677 C-4.38157263 38.14395911 -4.39385306 34.24725917 -4.42292023 30.35034943 C-4.45005371 26.68299549 -4.45844936 23.01607759 -4.45243073 19.34863281 C-4.4540573 17.3597864 -4.47559095 15.37098758 -4.49768066 13.38226318 C-4.49218201 12.19878296 -4.48668335 11.01530273 -4.48101807 9.79595947 C-4.48470524 8.7672385 -4.48839241 7.73851753 -4.49219131 6.6786232 C-3.87691 3.33011468 -2.57480133 2.14062112 0 0 Z " fill="#213D41" transform="translate(112,205)"/>
<path d="M0 0 C0.99 0 1.98 0 3 0 C3 0.66 3 1.32 3 2 C5.88214887 1.11785113 5.88214887 1.11785113 8 0 C9.34977849 0.63270867 10.68352881 1.30062468 12 2 C12.66 2 13.32 2 14 2 C14.33 1.67 14.66 1.34 15 1 C17.01964199 0.92755947 19.04167124 0.91622812 21.0625 0.9375 C22.16722656 0.94652344 23.27195313 0.95554687 24.41015625 0.96484375 C25.26480469 0.97644531 26.11945313 0.98804688 27 1 C26.34 1.33 25.68 1.66 25 2 C25 2.66 25 3.32 25 4 C25.99 3.34 26.98 2.68 28 2 C28.99 2 29.98 2 31 2 C31 2.66 31 3.32 31 4 C32.98 3.34 34.96 2.68 37 2 C37 2.99 37 3.98 37 5 C22.48 5 7.96 5 -7 5 C-6.01 4.01 -5.02 3.02 -4 2 C-2.68 2 -1.36 2 0 2 C0 1.34 0 0.68 0 0 Z " fill="#4A9CA4" transform="translate(128,489)"/>
<path d="M0 0 C0.66 0.33 1.32 0.66 2 1 C1.98952637 1.62342285 1.97905273 2.2468457 1.96826172 2.88916016 C0.25288535 22.21003277 0.25288535 22.21003277 5.44921875 39.546875 C6.21685547 40.26617187 6.21685547 40.26617187 7 41 C9.48032918 45.49251677 9.23363704 49.82773113 9.125 54.8125 C9.11597656 55.60076172 9.10695312 56.38902344 9.09765625 57.20117188 C9.07422504 59.13424666 9.03835838 61.0671638 9 63 C8.34 63 7.68 63 7 63 C6.99742187 61.91203125 6.99484375 60.8240625 6.9921875 59.703125 C6.81434558 49.48376534 6.81434558 49.48376534 3 40.125 C-1.52452384 32.25579227 -0.97727556 23.83601864 -1 15 C-1.02389676 13.65360605 -1.04978168 12.30724518 -1.078125 10.9609375 C-1.19222462 2.38444924 -1.19222462 2.38444924 0 0 Z " fill="#483E13" transform="translate(238,230)"/>
<path d="M0 0 C2.78281314 1.47836948 4.14222285 3.5455116 6 6.0625 C6.98230498 7.0798873 7.97469597 8.08846117 9 9.0625 C5.59687262 8.00374926 2.98646769 7.05347846 0 5.0625 C0.495 5.51625 0.99 5.97 1.5 6.4375 C3 8.0625 3 8.0625 3 10.0625 C1.35 9.4025 -0.3 8.7425 -2 8.0625 C-2.66 9.3825 -3.32 10.7025 -4 12.0625 C-4.66 11.7325 -5.32 11.4025 -6 11.0625 C-6 10.4025 -6 9.7425 -6 9.0625 C-6.763125 9.84625 -7.52625 10.63 -8.3125 11.4375 C-11 14.0625 -11 14.0625 -14 16.0625 C-14.99 15.7325 -15.98 15.4025 -17 15.0625 C-16.29875 14.546875 -15.5975 14.03125 -14.875 13.5 C-11.50345258 10.64151414 -8.82591209 7.4442009 -6 4.0625 C-2.61637239 0.08176164 -2.61637239 0.08176164 0 0 Z " fill="#252B2B" transform="translate(211,107.9375)"/>
<path d="M0 0 C0.66 0.33 1.32 0.66 2 1 C0.53515625 3.00195312 0.53515625 3.00195312 -0.9296875 5.00390625 C-3.97420288 10.68181632 -4.29016864 16.30784742 -4.23046875 22.6015625 C-4.23001053 23.40105316 -4.22955231 24.20054382 -4.2290802 25.02426147 C-4.22607642 26.70336402 -4.21824683 28.38246426 -4.20581055 30.06152344 C-4.18750393 32.62444983 -4.18530157 35.18701487 -4.18554688 37.75 C-4.18063242 39.38802394 -4.17480442 41.02604545 -4.16796875 42.6640625 C-4.16685593 43.42562653 -4.1657431 44.18719055 -4.16459656 44.97183228 C-4.1308519 48.76843879 -3.91311024 52.30839321 -3 56 C-3.66 55.67 -4.32 55.34 -5 55 C-5 54.01 -5 53.02 -5 52 C-5.66 52 -6.32 52 -7 52 C-7 38.8 -7 25.6 -7 12 C-6.34 12 -5.68 12 -5 12 C-4.9175 10.948125 -4.835 9.89625 -4.75 8.8125 C-3.94679238 4.72952791 -2.80665291 2.9877273 0 0 Z " fill="#483D0B" transform="translate(412,218)"/>
<path d="M0 0 C0.99 0 1.98 0 3 0 C3 2.31 3 4.62 3 7 C6.06957098 8.02319033 8.22440323 8.13371939 11.4375 8.125 C12.85869141 8.12886719 12.85869141 8.12886719 14.30859375 8.1328125 C16.70140459 8.01473475 18.71336153 7.68112635 21 7 C21 7.66 21 8.32 21 9 C17.62556718 10.12481094 15.04975491 10.09847725 11.5 10.0625 C10.3553125 10.05347656 9.210625 10.04445313 8.03125 10.03515625 C6.53078125 10.01775391 6.53078125 10.01775391 5 10 C4.01 10 3.02 10 2 10 C-12.33333333 10 -26.66666667 10 -41 10 C-41 9.34 -41 8.68 -41 8 C-42.32 8.33 -43.64 8.66 -45 9 C-44.67 8.34 -44.34 7.68 -44 7 C-43.03477417 7.24447876 -43.03477417 7.24447876 -42.05004883 7.49389648 C-38.07478591 8.15352348 -34.22116679 8.12343039 -30.19921875 8.09765625 C-29.36284378 8.0962413 -28.52646881 8.09482635 -27.66474915 8.09336853 C-25.005629 8.08779184 -22.3465945 8.07524365 -19.6875 8.0625 C-17.87955851 8.05748199 -16.0716157 8.05291961 -14.26367188 8.04882812 C-9.84241516 8.03783004 -5.42122207 8.0205815 -1 8 C-0.17361624 5.10765685 0 3.11257569 0 0 Z " fill="#7FC7A9" transform="translate(233,349)"/>
<path d="M0 0 C2.47218822 2.47218822 2.26532401 3.22562875 2.31884766 6.63330078 C2.33871735 7.59414581 2.35858704 8.55499084 2.37905884 9.54495239 C2.39638565 11.10438065 2.39638565 11.10438065 2.4140625 12.6953125 C2.43342865 13.75789276 2.4527948 14.82047302 2.4727478 15.91525269 C2.53266084 19.31841943 2.57897598 22.72161978 2.625 26.125 C2.66316897 28.4284004 2.70222005 30.73178636 2.7421875 33.03515625 C2.83837187 38.68997628 2.92338481 44.34488283 3 50 C2.01 49.34 1.02 48.68 0 48 C-0.36076355 45.93722534 -0.36076355 45.93722534 -0.34057617 43.36669922 C-0.34034958 42.40585419 -0.34012299 41.44500916 -0.33988953 40.45504761 C-0.32440567 39.41542877 -0.30892181 38.37580994 -0.29296875 37.3046875 C-0.28872391 36.24210724 -0.28447906 35.17952698 -0.28010559 34.08474731 C-0.26327389 30.68124354 -0.22561303 27.27832567 -0.1875 23.875 C-0.17245899 21.57162312 -0.15876958 19.26823698 -0.14648438 16.96484375 C-0.11335574 11.30969495 -0.06311197 5.65488932 0 0 Z " fill="#6EC1C9" transform="translate(339,437)"/>
<path d="M0 0 C1.32 0 2.64 0 4 0 C2.51346494 3.46629835 0.54277649 5.69022036 -2.1328125 8.328125 C-3.34130859 9.52695313 -3.34130859 9.52695313 -4.57421875 10.75 C-5.41597656 11.575 -6.25773438 12.4 -7.125 13.25 C-7.97449219 14.09046875 -8.82398438 14.9309375 -9.69921875 15.796875 C-11.79504923 17.86915683 -13.89540713 19.93662393 -16 22 C-16.99 21.67 -17.98 21.34 -19 21 C-19 20.34 -19 19.68 -19 19 C-19.99 19.33 -20.98 19.66 -22 20 C-21.505 18.515 -21.505 18.515 -21 17 C-19.68 17.33 -18.36 17.66 -17 18 C-16.67 17.34 -16.34 16.68 -16 16 C-10.4047619 11 -10.4047619 11 -8 11 C-7.67 9.68 -7.34 8.36 -7 7 C-6.01 7 -5.02 7 -4 7 C-3.34 5.68 -2.68 4.36 -2 3 C-1.34 3 -0.68 3 0 3 C0 2.01 0 1.02 0 0 Z " fill="#222D2E" transform="translate(159,112)"/>
<path d="M0 0 C1.12067871 0.01047363 2.24135742 0.02094727 3.39599609 0.03173828 C5.21357422 0.04140625 5.21357422 0.04140625 7.06787109 0.05126953 C8.33888672 0.06802734 9.60990234 0.08478516 10.91943359 0.10205078 C12.19818359 0.11107422 13.47693359 0.12009766 14.79443359 0.12939453 C17.96117939 0.15302696 21.12782944 0.18889892 24.29443359 0.22705078 C24.29443359 6.82705078 24.29443359 13.42705078 24.29443359 20.22705078 C23.63443359 20.22705078 22.97443359 20.22705078 22.29443359 20.22705078 C21.96443359 20.88705078 21.63443359 21.54705078 21.29443359 22.22705078 C21.25171259 20.56093173 21.25379527 18.89322193 21.29443359 17.22705078 C21.62443359 16.89705078 21.95443359 16.56705078 22.29443359 16.22705078 C22.52971132 13.87717816 22.70829776 11.52149039 22.85693359 9.16455078 C23.00130859 6.87517578 23.14568359 4.58580078 23.29443359 2.22705078 C14.05443359 2.22705078 4.81443359 2.22705078 -4.70556641 2.22705078 C-2.70556641 0.22705078 -2.70556641 0.22705078 0 0 Z " fill="#DEC345" transform="translate(437.70556640625,195.77294921875)"/>
<path d="M0 0 C7.12600133 -0.35368021 12.47059106 0.04328652 19 3 C19 3.66 19 4.32 19 5 C16.22890693 5.05392397 13.45886182 5.09363455 10.6875 5.125 C9.90181641 5.14175781 9.11613281 5.15851563 8.30664062 5.17578125 C7.54931641 5.18222656 6.79199219 5.18867188 6.01171875 5.1953125 C4.96697388 5.21102295 4.96697388 5.21102295 3.90112305 5.22705078 C2 5 2 5 -1 3 C-0.67 2.01 -0.34 1.02 0 0 Z " fill="#E6C945" transform="translate(206,345)"/>
<path d="M0 0 C0.33 1.32 0.66 2.64 1 4 C0.071875 4.12375 0.071875 4.12375 -0.875 4.25 C-3.1765144 4.79994195 -3.1765144 4.79994195 -4.125 7 C-4.558125 7.99 -4.558125 7.99 -5 9 C-5.99 9.495 -5.99 9.495 -7 10 C-7 10.99 -7 11.98 -7 13 C-8.32 13 -9.64 13 -11 13 C-11.1546875 13.86625 -11.1546875 13.86625 -11.3125 14.75 C-12.12534484 17.41021947 -13.06844739 18.99690841 -15 21 C-16.32 21 -17.64 21 -19 21 C-19.2475 21.639375 -19.495 22.27875 -19.75 22.9375 C-21 25 -21 25 -23.078125 25.62890625 C-23.71234375 25.75136719 -24.3465625 25.87382812 -25 26 C-21.59086728 21.82937716 -18.21435793 18.37148634 -14 15 C-12.44484537 13.28353944 -10.96280001 11.51784089 -9.48046875 9.73828125 C-7.45101222 7.35541013 -5.24217997 5.18158051 -3 3 C-2.401875 2.401875 -1.80375 1.80375 -1.1875 1.1875 C-0.795625 0.795625 -0.40375 0.40375 0 0 Z " fill="#2B4649" transform="translate(149,168)"/>
<path d="M0 0 C1 3 1 3 0.25 5.5 C-1 8 -1 8 -2.5625 9.3125 C-6.1763657 13.55486408 -5.13612772 22.0387334 -5.09765625 27.4375 C-5.0962413 28.20304199 -5.09482635 28.96858398 -5.09336853 29.75732422 C-5.08782853 32.17159142 -5.07528779 34.58576144 -5.0625 37 C-5.05747723 38.64973823 -5.05291569 40.29947794 -5.04882812 41.94921875 C-5.03787886 45.96618255 -5.02065666 49.98307487 -5 54 C-7.50105833 50.24841251 -7.30595468 47.27553924 -7.30078125 42.9296875 C-7.30506638 42.13402374 -7.3093515 41.33835999 -7.31376648 40.51858521 C-7.31951013 38.83238678 -7.32000978 37.14616357 -7.31567383 35.45996094 C-7.31253703 32.90515566 -7.33589019 30.35153514 -7.36132812 27.796875 C-7.43935767 7.95241682 -7.43935767 7.95241682 0 0 Z " fill="#F1D559" transform="translate(414,218)"/>
<path d="M0 0 C1.32 0 2.64 0 4 0 C2.60652624 3.15204981 0.97514921 5.26171773 -1.4765625 7.671875 C-2.48203125 8.66767578 -2.48203125 8.66767578 -3.5078125 9.68359375 C-4.20648438 10.36550781 -4.90515625 11.04742187 -5.625 11.75 C-6.33140625 12.44738281 -7.0378125 13.14476562 -7.765625 13.86328125 C-9.50598703 15.58012488 -11.25084981 17.29211832 -13 19 C-13.66 17.68 -14.32 16.36 -15 15 C-14.01 15 -13.02 15 -12 15 C-11.34 13.68 -10.68 12.36 -10 11 C-9.34 11 -8.68 11 -8 11 C-7.67 9.68 -7.34 8.36 -7 7 C-6.01 7 -5.02 7 -4 7 C-3.34 5.68 -2.68 4.36 -2 3 C-1.34 3 -0.68 3 0 3 C0 2.01 0 1.02 0 0 Z " fill="#212E2E" transform="translate(135,136)"/>
<path d="M0 0 C1.32 0 2.64 0 4 0 C2.60652624 3.15204981 0.97514921 5.26171773 -1.4765625 7.671875 C-2.48203125 8.66767578 -2.48203125 8.66767578 -3.5078125 9.68359375 C-4.20648438 10.36550781 -4.90515625 11.04742187 -5.625 11.75 C-6.33140625 12.44738281 -7.0378125 13.14476563 -7.765625 13.86328125 C-9.50598703 15.58012488 -11.25084981 17.29211832 -13 19 C-13.33 18.01 -13.66 17.02 -14 16 C-13.34 16 -12.68 16 -12 16 C-11.896875 15.360625 -11.79375 14.72125 -11.6875 14.0625 C-11.460625 13.381875 -11.23375 12.70125 -11 12 C-10.01 11.67 -9.02 11.34 -8 11 C-7.814375 10.1028125 -7.814375 10.1028125 -7.625 9.1875 C-6.70328488 5.96149709 -4.70371991 4.84644286 -2 3 C-1.34 3 -0.68 3 0 3 C0 2.01 0 1.02 0 0 Z " fill="#212E2F" transform="translate(183,88)"/>
<path d="M0 0 C4.28265408 3.45906675 7.96303063 7.02731526 11.4609375 11.2734375 C13.56662498 13.63565543 15.95022974 15.56842675 18.38671875 17.578125 C20.56216431 19.49546685 22.28633629 21.66941736 24 24 C21.0625 23.25 21.0625 23.25 18 22 C17.125 19.875 17.125 19.875 17 18 C16.4225 17.9175 15.845 17.835 15.25 17.75 C12.32205399 16.774018 10.94755463 15.36488777 9 13 C9 12.01 9 11.02 9 10 C8.01 10.33 7.02 10.66 6 11 C6 10.01 6 9.02 6 8 C5.195625 7.54625 4.39125 7.0925 3.5625 6.625 C1 5 1 5 0.1875 2.3125 C0.0946875 1.1678125 0.0946875 1.1678125 0 0 Z " fill="#263F41" transform="translate(220,117)"/>
<path d="M0 0 C1.953125 0.6796875 1.953125 0.6796875 4 2 C4.609375 4.3828125 4.609375 4.3828125 4.75 7.125 C4.80671875 8.03507812 4.8634375 8.94515625 4.921875 9.8828125 C4.94765625 10.58148438 4.9734375 11.28015625 5 12 C4.01 12 3.02 12 2 12 C1.67 12.66 1.34 13.32 1 14 C-1.0625 14.625 -1.0625 14.625 -3 15 C-2.67128906 14.44699219 -2.34257812 13.89398438 -2.00390625 13.32421875 C-0.83311041 10.61362138 -0.82910825 8.7477487 -0.9375 5.8125 C-0.9914942 4.20910693 -1.02045392 2.60417155 -1 1 C-0.67 0.67 -0.34 0.34 0 0 Z " fill="#262624" transform="translate(219,322)"/>
<path d="M0 0 C0.66 0.99 1.32 1.98 2 3 C-0.75 6.875 -0.75 6.875 -3 8 C-3.66 7.67 -4.32 7.34 -5 7 C-4.7215625 7.9590625 -4.7215625 7.9590625 -4.4375 8.9375 C-4.293125 9.618125 -4.14875 10.29875 -4 11 C-4.33 11.33 -4.66 11.66 -5 12 C-5.33 12.66 -5.66 13.32 -6 14 C-6.99 14.33 -7.98 14.66 -9 15 C-9.99 15.495 -9.99 15.495 -11 16 C-11.99 15.34 -12.98 14.68 -14 14 C-9.38 9.38 -4.76 4.76 0 0 Z " fill="#66BAC3" transform="translate(84,192)"/>
<path d="M0 0 C0.33 0 0.66 0 1 0 C1 15.84 1 31.68 1 48 C0.01 47.01 -0.98 46.02 -2 45 C-2.66 45 -3.32 45 -4 45 C-4 46.98 -4 48.96 -4 51 C-4.33 51 -4.66 51 -5 51 C-5 48.69 -5 46.38 -5 44 C-3.68 43.34 -2.36 42.68 -1 42 C-0.67 28.14 -0.34 14.28 0 0 Z " fill="#69CBD6" transform="translate(365,438)"/>
<path d="M0 0 C0.33 0 0.66 0 1 0 C1 13.53 1 27.06 1 41 C2.98 40.505 2.98 40.505 5 40 C5.70211894 38.34795544 6.36971413 36.68076231 7 35 C8.485 34.505 8.485 34.505 10 34 C10 34.66 10 35.32 10 36 C9.34 36 8.68 36 8 36 C7.87625 36.61875 7.7525 37.2375 7.625 37.875 C7 40 7 40 5 42 C3.35 42 1.7 42 0 42 C0 28.14 0 14.28 0 0 Z " fill="#162E31" transform="translate(65,210)"/>
<path d="M0 0 C0.66 0 1.32 0 2 0 C2 10.23 2 20.46 2 31 C1.34 30.67 0.68 30.34 0 30 C-0.16728213 25.88850113 -0.32787468 21.77680194 -0.48217773 17.66479492 C-0.53566026 16.26498319 -0.59099434 14.86524096 -0.64819336 13.46557617 C-0.72992949 11.4577104 -0.80453025 9.44955813 -0.87890625 7.44140625 C-0.9260376 6.23170166 -0.97316895 5.02199707 -1.02172852 3.77563477 C-1 1 -1 1 0 0 Z " fill="#2F290C" transform="translate(377,126)"/>
<path d="M0 0 C0.66 1.32 1.32 2.64 2 4 C-1.96 7.96 -5.92 11.92 -10 16 C-10.66 15.67 -11.32 15.34 -12 15 C-12 14.34 -12 13.68 -12 13 C-11.34 13 -10.68 13 -10 13 C-9.67 12.01 -9.34 11.02 -9 10 C-8.34 10 -7.68 10 -7 10 C-6.9175 8.88625 -6.835 7.7725 -6.75 6.625 C-6 3 -6 3 -3.9375 1.5625 C-3.298125 1.376875 -2.65875 1.19125 -2 1 C-2 1.66 -2 2.32 -2 3 C-1.34 2.01 -0.68 1.02 0 0 Z " fill="#232E2E" transform="translate(118,153)"/>
<path d="M0 0 C0.5775 0.20625 1.155 0.4125 1.75 0.625 C0.33521865 1.27495297 -1.08191487 1.91978722 -2.5 2.5625 C-3.28890625 2.92214844 -4.0778125 3.28179687 -4.890625 3.65234375 C-8.43645265 5.11411707 -11.52618445 5.75169557 -15.359375 5.72265625 C-16.11347656 5.71943359 -16.86757813 5.71621094 -17.64453125 5.71289062 C-18.42183594 5.70451172 -19.19914063 5.69613281 -20 5.6875 C-20.79277344 5.68298828 -21.58554687 5.67847656 -22.40234375 5.67382812 C-24.35159508 5.66208565 -26.30080738 5.64415146 -28.25 5.625 C-25.86151817 3.23651817 -25.09567265 3.30994533 -21.8203125 3.0625 C-20.94246094 2.98773438 -20.06460938 2.91296875 -19.16015625 2.8359375 C-17.78150391 2.73152344 -17.78150391 2.73152344 -16.375 2.625 C-14.56451167 2.48671659 -12.75456231 2.34114054 -10.9453125 2.1875 C-10.14109863 2.12691406 -9.33688477 2.06632813 -8.50830078 2.00390625 C-5.26612444 1.45992164 -3.2771791 -0.54619652 0 0 Z " fill="#E4C943" transform="translate(615.25,232.375)"/>
<path d="M0 0 C0.99 0.495 0.99 0.495 2 1 C2 12.55 2 24.1 2 36 C2.99 36.33 3.98 36.66 5 37 C4.67 38.32 4.34 39.64 4 41 C2.02 41.495 2.02 41.495 0 42 C0 28.14 0 14.28 0 0 Z " fill="#6BB3BA" transform="translate(66,209)"/>
<path d="M0 0 C1.14023098 3.42069294 1.12770913 4.61687262 0 8 C-3.25485439 11.9988211 -6.02076087 13.72624115 -11 15 C-7.63737574 9.75430616 -3.86435321 4.88471613 0 0 Z M3 2 C3.33 2.99 3.66 3.98 4 5 C3.01 4.67 2.02 4.34 1 4 C1.66 3.34 2.32 2.68 3 2 Z " fill="#E3C83F" transform="translate(194,272)"/>
<path d="M0 0 C0.99 0 1.98 0 3 0 C3 0.66 3 1.32 3 2 C5.88214887 1.11785113 5.88214887 1.11785113 8 0 C11.73584906 1.47169811 11.73584906 1.47169811 13 4 C8.71702469 5.05619003 4.57014354 5.11702092 0.1875 5.0625 C-0.50537109 5.05798828 -1.19824219 5.05347656 -1.91210938 5.04882812 C-3.60811068 5.03713156 -5.30406703 5.01919924 -7 5 C-5.75 3.5 -5.75 3.5 -4 2 C-2.68 2 -1.36 2 0 2 C0 1.34 0 0.68 0 0 Z " fill="#52ACB5" transform="translate(128,489)"/>
<path d="M0 0 C0.89138672 0.04543945 0.89138672 0.04543945 1.80078125 0.09179688 C4.53375406 0.22993314 7.26687125 0.36498563 10 0.5 C10.93457031 0.54769531 11.86914062 0.59539062 12.83203125 0.64453125 C18.22956327 0.9087461 23.59608104 1.05098037 29 1 C28.360625 1.309375 27.72125 1.61875 27.0625 1.9375 C25.06389179 2.8345163 25.06389179 2.8345163 24 4 C15.57602941 4.74371217 8.05056018 3.3980392 0 1 C0 0.67 0 0.34 0 0 Z " fill="#CED663" transform="translate(164,354)"/>
<path d="M0 0 C0.66 0.33 1.32 0.66 2 1 C2.33373936 6.67356907 2.30563501 10.17928227 -1 15 C-1 16.32 -1 17.64 -1 19 C-1.99 19.33 -2.98 19.66 -4 20 C-4 18.35 -4 16.7 -4 15 C-4.66 15 -5.32 15 -6 15 C-6 14.34 -6 13.68 -6 13 C-5.34 13 -4.68 13 -4 13 C-3.67 11.68 -3.34 10.36 -3 9 C-2.67 9.66 -2.34 10.32 -2 11 C-1.34 11 -0.68 11 0 11 C0 7.37 0 3.74 0 0 Z " fill="#EFD045" transform="translate(215,322)"/>
<path d="M0 0 C-10.03596421 6.6906428 -25.46353985 6.43543024 -37.06640625 4.484375 C-38.02353516 4.24460937 -38.02353516 4.24460937 -39 4 C-39 3.67 -39 3.34 -39 3 C-38.04915527 3.0314209 -38.04915527 3.0314209 -37.07910156 3.06347656 C-21.27523371 3.79240418 -21.27523371 3.79240418 -6.20703125 -0.22265625 C-3.67582267 -1.11417927 -2.48402887 -0.90795538 0 0 Z " fill="#92C998" transform="translate(152,355)"/>
<path d="M0 0 C2.19578473 2.67312924 3.19649201 4.67118118 4 8 C4.66 8.33 5.32 8.66 6 9 C6 9.66 6 10.32 6 11 C7.11375 10.95875 8.2275 10.9175 9.375 10.875 C13 11 13 11 15 13 C14.625 15.125 14.625 15.125 14 17 C13.67 16.34 13.34 15.68 13 15 C11.948125 14.7525 10.89625 14.505 9.8125 14.25 C5.44296328 13.08539207 2.42090896 10.84395222 0 7 C-0.375 3.125 -0.375 3.125 0 0 Z " fill="#E1C440" transform="translate(546,224)"/>
<path d="M0 0 C2.84595718 4.47375845 1.83401078 8.28685557 0.89453125 13.28125 C0 16 0 16 -2.8125 18.0625 C-3.864375 18.371875 -4.91625 18.68125 -6 19 C-7.67623498 19.98387706 -9.34634594 20.97862543 -11 22 C-11 20.68 -11 19.36 -11 18 C-9.741875 17.62875 -8.48375 17.2575 -7.1875 16.875 C-3.75474325 15.23456757 -3.09815271 14.27687377 -1.80078125 10.6171875 C-1.06916339 7.08400857 -0.45924265 3.57826567 0 0 Z " fill="#373013" transform="translate(155,320)"/>
<path d="M0 0 C0.66 0.66 1.32 1.32 2 2 C1.625 4.125 1.625 4.125 1 6 C0.01 5.67 -0.98 5.34 -2 5 C-1.96519531 5.66386719 -1.93039063 6.32773437 -1.89453125 7.01171875 C-1.61605206 16.09544469 -1.61605206 16.09544469 -5 20 C-5.66 20 -6.32 20 -7 20 C-7.33 20.66 -7.66 21.32 -8 22 C-7.53786027 19.84334791 -7.05038071 18.0900746 -5.96875 16.15625 C-4.85065598 13.66758912 -4.79524993 11.9615024 -4.875 9.25 C-4.89304688 8.45078125 -4.91109375 7.6515625 -4.9296875 6.828125 C-4.95289063 6.22484375 -4.97609375 5.6215625 -5 5 C-4.360625 4.731875 -3.72125 4.46375 -3.0625 4.1875 C-0.66868314 3.11332248 -0.66868314 3.11332248 0 0 Z " fill="#4D4110" transform="translate(221,318)"/>
<path d="M0 0 C4.455 0.99 4.455 0.99 9 2 C9 2.66 9 3.32 9 4 C8.39671875 4.19335938 7.7934375 4.38671875 7.171875 4.5859375 C6.37265625 4.84632813 5.5734375 5.10671875 4.75 5.375 C3.96109375 5.63023437 3.1721875 5.88546875 2.359375 6.1484375 C0.13372042 6.95173667 -1.90931672 7.89711662 -4 9 C-3.67 7.68 -3.34 6.36 -3 5 C-2.34 5.33 -1.68 5.66 -1 6 C-1.33 4.68 -1.66 3.36 -2 2 C-1.34 2 -0.68 2 0 2 C0 1.34 0 0.68 0 0 Z " fill="#362F12" transform="translate(420,207)"/>
<path d="M0 0 C3.11920338 0.33420036 3.95474254 0.94788534 6.0625 3.375 C6.701875 4.24125 7.34125 5.1075 8 6 C8.98230498 7.0173873 9.97469597 8.02596117 11 9 C8.0625 8.25 8.0625 8.25 5 7 C4.125 4.875 4.125 4.875 4 3 C3.34 3 2.68 3 2 3 C1.67 3.99 1.34 4.98 1 6 C-0.98 6 -2.96 6 -5 6 C-3.35 4.02 -1.7 2.04 0 0 Z " fill="#273C3E" transform="translate(209,108)"/>
<path d="M0 0 C0.33 0 0.66 0 1 0 C1.05429959 1.74965358 1.09292823 3.49979787 1.125 5.25 C1.14820313 6.22453125 1.17140625 7.1990625 1.1953125 8.203125 C0.99636399 11.05206763 0.53196261 12.61815001 -1 15 C-3.99904936 17.0683099 -6.41302423 17.19927643 -10 17 C-7.16569547 13.7457985 -5.31392226 12.4793247 -1 12 C-1.020625 10.7625 -1.04125 9.525 -1.0625 8.25 C-1.06766681 5.3359175 -0.93015558 2.79046673 0 0 Z " fill="#D4BB41" transform="translate(156,324)"/>
<path d="M0 0 C2.74501997 3.61186839 5.37012014 7.30395263 8 11 C7.34 12.32 6.68 13.64 6 15 C4.68 14.67 3.36 14.34 2 14 C2.226875 13.46375 2.45375 12.9275 2.6875 12.375 C3.13704769 8.95843758 1.56428205 7.00342153 0 4 C0 2.68 0 1.36 0 0 Z " fill="#222728" transform="translate(542,534)"/>
<path d="M0 0 C1.1446875 0.12375 1.1446875 0.12375 2.3125 0.25 C-4.2508546 8.23541477 -4.2508546 8.23541477 -7.6875 10.25 C-8.6775 10.25 -9.6675 10.25 -10.6875 10.25 C-10.6875 9.59 -10.6875 8.93 -10.6875 8.25 C-9.6975 8.25 -8.7075 8.25 -7.6875 8.25 C-7.419375 7.6725 -7.15125 7.095 -6.875 6.5 C-3.62228261 0.33695652 -3.62228261 0.33695652 0 0 Z " fill="#212E2E" transform="translate(74.6875,198.75)"/>
<path d="M0 0 C1 2 1 2 0.6875 4 C0 6 0 6 -2 8 C-2.99 8.33 -3.98 8.66 -5 9 C-5.33 9.99 -5.66 10.98 -6 12 C-7.32 11.34 -8.64 10.68 -10 10 C-6.7 6.7 -3.4 3.4 0 0 Z " fill="#65B8C1" transform="translate(197,79)"/>
<path d="M0 0 C6.06892629 -0.25287193 11.16200408 0.30167391 17 2 C17 2.33 17 2.66 17 3 C11.72 3 6.44 3 1 3 C0.67 2.01 0.34 1.02 0 0 Z " fill="#433807" transform="translate(207,347)"/>
<path d="M0 0 C8.415 1.98 8.415 1.98 17 4 C17 4.66 17 5.32 17 6 C17.66 6.33 18.32 6.66 19 7 C13.01006953 7.3152595 9.36439644 6.68219822 4 4 C4 3.34 4 2.68 4 2 C2.68 2 1.36 2 0 2 C0 1.34 0 0.68 0 0 Z " fill="#302C13" transform="translate(501,317)"/>
<path d="M0 0 C-1.07401108 2.91517292 -1.77810176 4.77810176 -4 7 C-5.32 7 -6.64 7 -8 7 C-8.2475 7.639375 -8.495 8.27875 -8.75 8.9375 C-10 11 -10 11 -12.078125 11.62890625 C-13.02945313 11.81259766 -13.02945313 11.81259766 -14 12 C-4.24783862 0 -4.24783862 0 0 0 Z " fill="#284042" transform="translate(138,182)"/>
<path d="M0 0 C1.958964 0.30852185 3.91715713 0.6219418 5.875 0.9375 C6.96554688 1.11152344 8.05609375 1.28554688 9.1796875 1.46484375 C12 2 12 2 14 3 C16.0374763 3.22858114 18.08040303 3.41024278 20.125 3.5625 C21.76855469 3.68818359 21.76855469 3.68818359 23.4453125 3.81640625 C24.28835937 3.87699219 25.13140625 3.93757813 26 4 C26 4.33 26 4.66 26 5 C20.39 5 14.78 5 9 5 C9 4.34 9 3.68 9 3 C6.36 3 3.72 3 1 3 C0.67 2.01 0.34 1.02 0 0 Z " fill="#75C6B3" transform="translate(162,354)"/>
<path d="M0 0 C0.99 0 1.98 0 3 0 C3 1.32 3 2.64 3 4 C3.66 4 4.32 4 5 4 C5 5.65 5 7.3 5 9 C1.6717269 10.66413655 -1.99733973 9.81867406 -5.625 9.5625 C-6.42679688 9.51029297 -7.22859375 9.45808594 -8.0546875 9.40429688 C-10.03679103 9.27451629 -12.01844499 9.13790265 -14 9 C-14 8.34 -14 7.68 -14 7 C-8.06 7.33 -2.12 7.66 4 8 C2.68 6.02 1.36 4.04 0 2 C0 1.34 0 0.68 0 0 Z " fill="#E9CD47" transform="translate(228,334)"/>
<path d="M0 0 C0.33 0 0.66 0 1 0 C1.03738281 1.30195313 1.07476562 2.60390625 1.11328125 3.9453125 C1.17896674 5.67190257 1.24541318 7.39846381 1.3125 9.125 C1.33505859 9.9809375 1.35761719 10.836875 1.38085938 11.71875 C1.6030207 16.96983578 2.50823095 20.29565171 5 25 C4.5871582 27.16455078 4.5871582 27.16455078 4 29 C0.0692875 22.43849566 -0.52136048 17.56678248 -0.25 10 C-0.23195313 9.03449219 -0.21390625 8.06898438 -0.1953125 7.07421875 C-0.14859687 4.71507967 -0.08312137 2.35808925 0 0 Z " fill="#E3CA4D" transform="translate(490,280)"/>
<path d="M0 0 C0.70125 -0.02578125 1.4025 -0.0515625 2.125 -0.078125 C2.74375 0.03015625 3.3625 0.1384375 4 0.25 C4.66 1.24 5.32 2.23 6 3.25 C3.03 3.25 0.06 3.25 -3 3.25 C-3 3.91 -3 4.57 -3 5.25 C-3.99 5.25 -4.98 5.25 -6 5.25 C-6 3.93 -6 2.61 -6 1.25 C-3.78704384 0.14352192 -2.45327301 0.05411632 0 0 Z " fill="#89CAA6" transform="translate(97,344.75)"/>
<path d="M0 0 C0.33 0 0.66 0 1 0 C1.46450943 6.50313209 0.32575612 10.4174808 -3 16 C-4.32 15.67 -5.64 15.34 -7 15 C-6.401875 14.195625 -5.80375 13.39125 -5.1875 12.5625 C-2.57258769 8.68200735 -1.30777251 4.45831538 0 0 Z " fill="#463E16" transform="translate(628,213)"/>
<path d="M0 0 C0.5625 1.9375 0.5625 1.9375 1 4 C-1.06030619 6.06030619 -3.40119127 7.70059563 -6 9 C-6.99 8.34 -7.98 7.68 -9 7 C-7.88121617 5.82737096 -6.75476949 4.66204862 -5.625 3.5 C-4.68527344 2.52546875 -4.68527344 2.52546875 -3.7265625 1.53125 C-2 0 -2 0 0 0 Z " fill="#67BCC4" transform="translate(159,119)"/>
<path d="M0 0 C1.98 0.66 3.96 1.32 6 2 C6 3.32 6 4.64 6 6 C6.99 7.485 6.99 7.485 8 9 C8 9.99 8 10.98 8 12 C7.01 12.33 6.02 12.66 5 13 C5 11.35 5 9.7 5 8 C4.34 8 3.68 8 3 8 C3 6.35 3 4.7 3 3 C2.34 3 1.68 3 1 3 C0.67 2.01 0.34 1.02 0 0 Z " fill="#D3C850" transform="translate(246,344)"/>
<path d="M0 0 C2.97 0 5.94 0 9 0 C9 6.6 9 13.2 9 20 C8.67 20 8.34 20 8 20 C7.67 14.06 7.34 8.12 7 2 C5.02 2 3.04 2 1 2 C0.67 1.34 0.34 0.68 0 0 Z " fill="#3E9FA8" transform="translate(156,467)"/>
<path d="M0 0 C0.66 1.32 1.32 2.64 2 4 C-0.31 5.98 -2.62 7.96 -5 10 C-6.07349791 5.70600835 -5.79682816 4.80504787 -4 1 C-3.34 1.66 -2.68 2.32 -2 3 C-1.34 2.01 -0.68 1.02 0 0 Z " fill="#242E2F" transform="translate(198,73)"/>
<path d="M0 0 C0.33 0.66 0.66 1.32 1 2 C1.66 2.33 2.32 2.66 3 3 C1.35 5.64 -0.3 8.28 -2 11 C-4 7 -4 7 -3.25 4.375 C-2 2 -2 2 0 0 Z " fill="#36331C" transform="translate(198,259)"/>
<path d="M0 0 C3.96 0 7.92 0 12 0 C11.01 0.495 11.01 0.495 10 1 C10 1.66 10 2.32 10 3 C6.7 3 3.4 3 0 3 C0 2.01 0 1.02 0 0 Z " fill="#47A5AF" transform="translate(143,490)"/>
<path d="M0 0 C4.19469571 0.59924224 8.00999834 1.57499941 12 3 C12 3.66 12 4.32 12 5 C13.32 5 14.64 5 16 5 C16.33 4.01 16.66 3.02 17 2 C17 3.32 17 4.64 17 6 C10.24520726 6.7342166 5.81475715 4.27591952 0 1 C0 0.67 0 0.34 0 0 Z " fill="#6BB9C1" transform="translate(408,546)"/>
<path d="M0 0 C0.99 0.495 0.99 0.495 2 1 C2 2.32 2 3.64 2 5 C2.66 5 3.32 5 4 5 C4 5.99 4 6.98 4 8 C6.475 8.99 6.475 8.99 9 10 C9 10.99 9 11.98 9 13 C4.77565886 11.43542921 2.55473302 8.61920511 0 5 C-0.3125 2.125 -0.3125 2.125 0 0 Z " fill="#E2C849" transform="translate(559,307)"/>
<path d="M0 0 C1.231394 2.46278801 1.07159196 4.2795055 1 7 C1.33 7 1.66 7 2 7 C2.02712066 8.43739513 2.04645067 9.87493863 2.0625 11.3125 C2.07410156 12.11300781 2.08570313 12.91351563 2.09765625 13.73828125 C2 16 2 16 1 19 C0.34 18.67 -0.32 18.34 -1 18 C-1.02684312 15.18743719 -1.04676188 12.37512759 -1.0625 9.5625 C-1.07087891 8.76005859 -1.07925781 7.95761719 -1.08789062 7.13085938 C-1.0965143 5.08704779 -1.0522815 3.04316098 -1 1 C-0.67 0.67 -0.34 0.34 0 0 Z " fill="#DBC044" transform="translate(203,241)"/>
<path d="M0 0 C1.32 0.33 2.64 0.66 4 1 C1.03 3.97 -1.94 6.94 -5 10 C-5.33 8.68 -5.66 7.36 -6 6 C-5.34 6 -4.68 6 -4 6 C-3.34 4.68 -2.68 3.36 -2 2 C-1.34 2 -0.68 2 0 2 C0 1.34 0 0.68 0 0 Z " fill="#213030" transform="translate(103,169)"/>
<path d="M0 0 C1.98 0 3.96 0 6 0 C6 0.99 6 1.98 6 3 C4.9171875 3.12375 4.9171875 3.12375 3.8125 3.25 C0.44686746 4.14750201 -1.41612816 5.7114278 -4 8 C-3.67 6.35 -3.34 4.7 -3 3 C-2.01 2.67 -1.02 2.34 0 2 C0 1.34 0 0.68 0 0 Z " fill="#233233" transform="translate(207,65)"/>
<path d="M0 0 C4.95 0.33 9.9 0.66 15 1 C12.31907309 3.68092691 10.60832637 3.38670257 6.875 3.625 C5.77929688 3.69976562 4.68359375 3.77453125 3.5546875 3.8515625 C2.71164063 3.90054687 1.86859375 3.94953125 1 4 C0.67 2.68 0.34 1.36 0 0 Z " fill="#D6BC3E" transform="translate(207,349)"/>
<path d="M0 0 C0.75 1.75 0.75 1.75 1 4 C-0.8125 6.25 -0.8125 6.25 -3 8 C-3.66 8 -4.32 8 -5 8 C-5 8.66 -5 9.32 -5 10 C-6.32 10.33 -7.64 10.66 -9 11 C-8.06558465 9.72689688 -7.12732889 8.456612 -6.1875 7.1875 C-5.66542969 6.47980469 -5.14335937 5.77210938 -4.60546875 5.04296875 C-3.16871123 3.21468607 -1.68184237 1.60103312 0 0 Z " fill="#DDC244" transform="translate(182,287)"/>
<path d="M0 0 C0.66 0.33 1.32 0.66 2 1 C1.401875 1.804375 0.80375 2.60875 0.1875 3.4375 C-2.42741231 7.31799265 -3.69222749 11.54168462 -5 16 C-6.12021481 12.67720067 -5.88681157 10.73090999 -4.75 7.4375 C-4.49734375 6.67308594 -4.2446875 5.90867188 -3.984375 5.12109375 C-2.95044218 2.8932147 -1.8320419 1.61075594 0 0 Z " fill="#3D3512" transform="translate(412,218)"/>
<path d="M0 0 C1 3 1 3 0.25 5.5 C-0.93511657 7.87023314 -2.01292881 9.28389306 -4 11 C-4.66 10.67 -5.32 10.34 -6 10 C-4.27256146 6.38060496 -2.52349243 3.12432397 0 0 Z " fill="#DEC442" transform="translate(414,218)"/>
<path d="M0 0 C0 0.33 0 0.66 0 1 C-2.64 1.33 -5.28 1.66 -8 2 C-8 2.66 -8 3.32 -8 4 C-11.3 4.66 -14.6 5.32 -18 6 C-16.26192814 2.52385629 -12.32620482 2.05559935 -8.8125 0.8203125 C-5.76571372 -0.0683335 -3.16039364 -0.34166418 0 0 Z " fill="#C2AC3F" transform="translate(230,209)"/>
<path d="M0 0 C7.48291572 6.15034169 7.48291572 6.15034169 10 10 C8.68 10.33 7.36 10.66 6 11 C6 10.01 6 9.02 6 8 C5.195625 7.54625 4.39125 7.0925 3.5625 6.625 C1 5 1 5 0.1875 2.3125 C0.0946875 1.1678125 0.0946875 1.1678125 0 0 Z " fill="#2B4547" transform="translate(220,117)"/>
<path d="M0 0 C1.80411967 2.75924185 2.0127245 3.88972103 1.625 7.25 C1.41875 8.1575 1.2125 9.065 1 10 C0.01 9.67 -0.98 9.34 -2 9 C-2.125 5.625 -2.125 5.625 -2 2 C-1.34 1.34 -0.68 0.68 0 0 Z " fill="#E5D747" transform="translate(238,347)"/>
<path d="M0 0 C2.5 0.875 2.5 0.875 3.8125 3.1875 C4.5 5.875 4.5 5.875 4.5 9.875 C3.84 9.875 3.18 9.875 2.5 9.875 C2.17 7.235 1.84 4.595 1.5 1.875 C0.88125 2.08125 0.2625 2.2875 -0.375 2.5 C-1.07625 2.62375 -1.7775 2.7475 -2.5 2.875 C-3.16 2.215 -3.82 1.555 -4.5 0.875 C-2.5 -0.125 -2.5 -0.125 0 0 Z " fill="#D8BF48" transform="translate(244.5,204.125)"/>
<path d="M0 0 C0.33 0.66 0.66 1.32 1 2 C-1.45454545 7.72727273 -1.45454545 7.72727273 -4 9 C-4.66 8.67 -5.32 8.34 -6 8 C-4.55746343 4.63408134 -2.66735273 2.48952921 0 0 Z " fill="#66B7C0" transform="translate(93,183)"/>
<path d="M0 0 C0.33 0.66 0.66 1.32 1 2 C0.01 2.8971875 0.01 2.8971875 -1 3.8125 C-3.3373846 5.87501834 -3.3373846 5.87501834 -3 9 C-4.98 9.33 -6.96 9.66 -9 10 C-6.1310659 6.49352499 -3.2682346 3.14718888 0 0 Z " fill="#2E4C4F" transform="translate(161,156)"/>
<path d="M0 0 C-1 3 -1 3 -2.70703125 4.203125 C-3.40183594 4.54859375 -4.09664062 4.8940625 -4.8125 5.25 C-5.49957031 5.60578125 -6.18664062 5.9615625 -6.89453125 6.328125 C-9 7 -9 7 -13 6 C-10.03 5.01 -7.06 4.02 -4 3 C-4 2.34 -4 1.68 -4 1 C-2 0 -2 0 0 0 Z " fill="#EDD248" transform="translate(142,344)"/>
<path d="M0 0 C0.68359375 1.765625 0.68359375 1.765625 1 4 C-0.21484375 5.921875 -0.21484375 5.921875 -1.9375 7.75 C-2.50339844 8.36359375 -3.06929687 8.9771875 -3.65234375 9.609375 C-4.31943359 10.29773438 -4.31943359 10.29773438 -5 11 C-5.66 10.01 -6.32 9.02 -7 8 C-5.71034824 6.62437146 -4.37310707 5.29233607 -3 4 C-2.34 4 -1.68 4 -1 4 C-0.67 2.68 -0.34 1.36 0 0 Z " fill="#3A3314" transform="translate(188,276)"/>
<path d="M0 0 C0.66 0 1.32 0 2 0 C2 0.66 2 1.32 2 2 C1.34 2 0.68 2 0 2 C-0.12375 2.61875 -0.2475 3.2375 -0.375 3.875 C-1 6 -1 6 -3 8 C-5.625 8.125 -5.625 8.125 -8 8 C-7.67 7.01 -7.34 6.02 -7 5 C-7 5.66 -7 6.32 -7 7 C-5.04105639 6.88693303 -5.04105639 6.88693303 -3 6 C-1.76709799 3.54295238 -1.76709799 3.54295238 -1 1 C-0.67 0.67 -0.34 0.34 0 0 Z " fill="#283D40" transform="translate(73,244)"/>
<path d="M0 0 C0.66 0.66 1.32 1.32 2 2 C0.49776416 6.20626034 -2.28550034 7.73900021 -6 10 C-5.67 8.35 -5.34 6.7 -5 5 C-4.01 5 -3.02 5 -2 5 C-2 4.01 -2 3.02 -2 2 C-1.34 2 -0.68 2 0 2 C0 1.34 0 0.68 0 0 Z " fill="#E6CB45" transform="translate(247,218)"/>
<path d="M0 0 C0.66 0.33 1.32 0.66 2 1 C1.67 1.99 1.34 2.98 1 4 C1.66 4.33 2.32 4.66 3 5 C-1.75 8 -1.75 8 -4 8 C-2.87548273 5.0280615 -1.77706209 2.66559313 0 0 Z " fill="#65B8C0" transform="translate(286,410)"/>
<path d="M0 0 C1.09658936 3.28976808 0.79953138 4.71303767 0 8 C-0.99 7.34 -1.98 6.68 -3 6 C-1.125 1.125 -1.125 1.125 0 0 Z M3 2 C3.33 2.99 3.66 3.98 4 5 C3.01 4.67 2.02 4.34 1 4 C1.66 3.34 2.32 2.68 3 2 Z " fill="#F0D23E" transform="translate(194,272)"/>
<path d="M0 0 C0.66 0 1.32 0 2 0 C2.33 1.65 2.66 3.3 3 5 C2.34 5 1.68 5 1 5 C0.67 5.66 0.34 6.32 0 7 C0 6.34 0 5.68 0 5 C-1.32 5.33 -2.64 5.66 -4 6 C-2.7260411 3.96166576 -1.38938077 1.96147874 0 0 Z " fill="#433C1F" transform="translate(460,216)"/>
<path d="M0 0 C-1.875 3.875 -1.875 3.875 -3 5 C-5.33297433 5.04092937 -7.66705225 5.04241723 -10 5 C-3.63636364 0 -3.63636364 0 0 0 Z " fill="#DDC240" transform="translate(240,206)"/>
<path d="M0 0 C0.33 1.32 0.66 2.64 1 4 C-1.3125 6.0625 -1.3125 6.0625 -4 8 C-4.99 7.67 -5.98 7.34 -7 7 C-6.21625 6.401875 -5.4325 5.80375 -4.625 5.1875 C-1.85425677 3.08914751 -1.85425677 3.08914751 0 0 Z " fill="#294447" transform="translate(201,116)"/>
<path d="M0 0 C0.33 0 0.66 0 1 0 C0.67 2.64 0.34 5.28 0 8 C-2.64 8 -5.28 8 -8 8 C-7.401875 7.731875 -6.80375 7.46375 -6.1875 7.1875 C-2.68911463 5.28837651 -1.26654546 3.79963639 0 0 Z " fill="#69C2C9" transform="translate(568,543)"/>
<path d="M0 0 C-1.98 0.66 -3.96 1.32 -6 2 C-6 2.66 -6 3.32 -6 4 C-7.98 4.66 -9.96 5.32 -12 6 C-11.5 4.1875 -11.5 4.1875 -10 2 C-3.17355372 -1.58677686 -3.17355372 -1.58677686 0 0 Z " fill="#5C5019" transform="translate(144,343)"/>
<path d="M0 0 C4 4.75 4 4.75 4 7 C1.69 7 -0.62 7 -3 7 C-2.2575 6.38125 -2.2575 6.38125 -1.5 5.75 C0.43386092 3.87797662 0.43386092 3.87797662 0 0 Z " fill="#362F10" transform="translate(227,334)"/>
<path d="M0 0 C1.32 0 2.64 0 4 0 C4 0.66 4 1.32 4 2 C5.2065625 2.433125 5.2065625 2.433125 6.4375 2.875 C9 4 9 4 10 6 C3.47692308 4.52307692 3.47692308 4.52307692 1.0625 1.875 C0.711875 1.25625 0.36125 0.6375 0 0 Z " fill="#D7BE45" transform="translate(498,313)"/>
<path d="M0 0 C0.66 0.99 1.32 1.98 2 3 C1.67 3.99 1.34 4.98 1 6 C-0.32 6 -1.64 6 -3 6 C-3.33 6.99 -3.66 7.98 -4 9 C-4.33 8.34 -4.66 7.68 -5 7 C-4.0625 4.875 -4.0625 4.875 -3 3 C-2.01 3 -1.02 3 0 3 C0 2.01 0 1.02 0 0 Z " fill="#F0D244" transform="translate(204,257)"/>
<path d="M0 0 C0.66 0.99 1.32 1.98 2 3 C1.01 3.495 1.01 3.495 0 4 C0 4.99 0 5.98 0 7 C-1.32 7.33 -2.64 7.66 -4 8 C-4.33 7.01 -4.66 6.02 -5 5 C-3.35 3.35 -1.7 1.7 0 0 Z " fill="#40391C" transform="translate(245,224)"/>
<path d="M0 0 C0.99 0.33 1.98 0.66 3 1 C3 2.32 3 3.64 3 5 C3.66 5.33 4.32 5.66 5 6 C5 6.99 5 7.98 5 9 C4.34 9 3.68 9 3 9 C-0.22265625 3.7265625 -0.22265625 3.7265625 -1 2 C-0.67 1.34 -0.34 0.68 0 0 Z " fill="#60B1BA" transform="translate(327,601)"/>
<path d="M0 0 C0.33 0 0.66 0 1 0 C1.05399736 1.45792884 1.09279177 2.91642712 1.125 4.375 C1.14820313 5.18710937 1.17140625 5.99921875 1.1953125 6.8359375 C1 9 1 9 -1 11 C-1.66 10.67 -2.32 10.34 -3 10 C-2.01 6.7 -1.02 3.4 0 0 Z " fill="#4A411B" transform="translate(244,293)"/>
<path d="M0 0 C1 3 1 3 0.29296875 5.0078125 C-0.25423828 6.05582031 -0.25423828 6.05582031 -0.8125 7.125 C-1.16957031 7.82882813 -1.52664063 8.53265625 -1.89453125 9.2578125 C-3 11 -3 11 -5 12 C-5 11.01 -5 10.02 -5 9 C-4.34 9 -3.68 9 -3 9 C-2.87625 8.2575 -2.7525 7.515 -2.625 6.75 C-2.04513299 4.19858515 -1.26291261 2.2732427 0 0 Z " fill="#EBD14C" transform="translate(626,216)"/>
<path d="M0 0 C0.99 0.495 0.99 0.495 2 1 C2 1.66 2 2.32 2 3 C3.1446875 3.1546875 3.1446875 3.1546875 4.3125 3.3125 C7.17059424 4.04364039 8.15742885 4.76951913 10 7 C8.35 7 6.7 7 5 7 C4.67 6.01 4.34 5.02 4 4 C3.01 4 2.02 4 1 4 C0.67 2.68 0.34 1.36 0 0 Z " fill="#305154" transform="translate(174,544)"/>
<path d="M0 0 C6.875 3.625 6.875 3.625 8 7 C4.66272214 5.82744291 2.22562513 4.81131596 0 2 C0 1.34 0 0.68 0 0 Z " fill="#5FA9AF" transform="translate(340,486)"/>
<path d="M0 0 C0.66 0.33 1.32 0.66 2 1 C2.625 3.5625 2.625 3.5625 3 6 C2.01 6.66 1.02 7.32 0 8 C-0.38063221 5.6739143 -0.71269945 3.33944736 -1 1 C-0.67 0.67 -0.34 0.34 0 0 Z " fill="#63BDC7" transform="translate(363,482)"/>
<path d="M0 0 C0.99 0 1.98 0 3 0 C3 2.31 3 4.62 3 7 C2.34 7 1.68 7 1 7 C0.34 5.02 -0.32 3.04 -1 1 C-0.67 0.67 -0.34 0.34 0 0 Z " fill="#6FA27C" transform="translate(233,349)"/>
<path d="M0 0 C-0.3125 2.375 -0.3125 2.375 -1 5 C-1.99 5.66 -2.98 6.32 -4 7 C-4 5.02 -4 3.04 -4 1 C-2 0 -2 0 0 0 Z " fill="#36331A" transform="translate(176,291)"/>
<path d="M0 0 C1 2 1 2 0.4375 4 C-1.57302108 6.79724672 -3.74418077 7.15065585 -7 8 C-6.02133662 6.85373678 -5.04205413 5.70800212 -4.0625 4.5625 C-3.51722656 3.92441406 -2.97195312 3.28632813 -2.41015625 2.62890625 C-1.63204305 1.73008851 -0.84063472 0.84063472 0 0 Z " fill="#65B1B8" transform="translate(133,143)"/>
<path d="M0 0 C2.83374881 3.20336822 3.5205537 5.78087253 4 10 C2 8.9375 2 8.9375 0 7 C-0.25 3.3125 -0.25 3.3125 0 0 Z " fill="#E7CD46" transform="translate(546,224)"/>
<path d="M0 0 C1.32 0.33 2.64 0.66 4 1 C1.03 3.475 1.03 3.475 -2 6 C-2 4.68 -2 3.36 -2 2 C-1.34 2 -0.68 2 0 2 C0 1.34 0 0.68 0 0 Z " fill="#212F30" transform="translate(79,193)"/>
<path d="M0 0 C0 3 0 3 -2.375 5.6875 C-5 8 -5 8 -7 8 C-5.50902342 4.2047869 -3.24299151 2.38957269 0 0 Z " fill="#2B4C4F" transform="translate(175,143)"/>
<path d="M0 0 C1.14926266 0.95421808 2.29430541 1.91352045 3.4375 2.875 C4.07558594 3.40867187 4.71367187 3.94234375 5.37109375 4.4921875 C7 6 7 6 8 8 C5.125 7.375 5.125 7.375 2 6 C0.625 2.875 0.625 2.875 0 0 Z " fill="#294647" transform="translate(212,109)"/>
<path d="M0 0 C0.66 0.66 1.32 1.32 2 2 C0.35 3.32 -1.3 4.64 -3 6 C-3.66 5.34 -4.32 4.68 -5 4 C-3.35 2.68 -1.7 1.36 0 0 Z " fill="#222F2F" transform="translate(95,178)"/>
<path d="M0 0 C1.14926266 0.95421808 2.29430541 1.91352045 3.4375 2.875 C4.07558594 3.40867188 4.71367187 3.94234375 5.37109375 4.4921875 C7 6 7 6 8 8 C5.0280615 6.87548273 2.66559313 5.77706209 0 4 C0 2.68 0 1.36 0 0 Z " fill="#253E40" transform="translate(257,154)"/>
<path d="M0 0 C1.65 1.65 3.3 3.3 5 5 C4.34 5.66 3.68 6.32 3 7 C2.01 6.34 1.02 5.68 0 5 C-0.1875 2.375 -0.1875 2.375 0 0 Z " fill="#263B3B" transform="translate(603,540)"/>
<path d="M0 0 C2.01136276 2.55991624 3.62845496 5.04590299 5 8 C4.01 8.33 3.02 8.66 2 9 C0.50178941 5.62902617 0 3.79557881 0 0 Z " fill="#24383B" transform="translate(542,534)"/>
<path d="M0 0 C1.0625 1.875 1.0625 1.875 2 4 C1.67 4.66 1.34 5.32 1 6 C-1.0625 6.625 -1.0625 6.625 -3 7 C-2.01 4.69 -1.02 2.38 0 0 Z M3 2 C3.33 2.66 3.66 3.32 4 4 C3.34 3.67 2.68 3.34 2 3 C2.33 2.67 2.66 2.34 3 2 Z " fill="#2A2A29" transform="translate(219,330)"/>
<path d="M0 0 C0.33 0 0.66 0 1 0 C1 2.64 1 5.28 1 8 C0.34 8 -0.32 8 -1 8 C-1.33 8.66 -1.66 9.32 -2 10 C-2.22036864 6.14354879 -1.60355101 3.50776784 0 0 Z " fill="#DFC646" transform="translate(461,208)"/>
<path d="M0 0 C3.82946843 1.45255699 5.12050295 3.42895561 7 7 C4.50638429 5.79618552 2.31856917 4.54571278 0 3 C0 2.01 0 1.02 0 0 Z " fill="#213537" transform="translate(277,175)"/>
<path d="M0 0 C0.33 1.32 0.66 2.64 1 4 C-0.875 5.0625 -0.875 5.0625 -3 6 C-3.66 5.67 -4.32 5.34 -5 5 C-3.35 3.35 -1.7 1.7 0 0 Z " fill="#304E51" transform="translate(149,168)"/>
</svg>
